<?xml version="1.0" encoding="iso-8859-1"?>
<!-- Generator: Adobe Illustrator 19.0.0, SVG Export Plug-In . SVG Version: 6.00 Build 0)  -->
<svg version="1.1" id="Layer_1" xmlns="http://www.w3.org/2000/svg" xmlns:xlink="http://www.w3.org/1999/xlink" x="0px" y="0px"
	 viewBox="0 0 512 512" style="enable-background:new 0 0 512 512;" xml:space="preserve">
<path style="fill:#7CC3D1;" d="M222.186,512c-2.052,0-4.116-0.679-5.833-2.073c-3.967-3.224-4.569-9.054-1.345-13.021
	l232.994-286.681c3.225-3.967,9.055-4.568,13.021-1.345c3.966,3.225,4.569,9.054,1.345,13.021L229.375,508.581
	C227.546,510.832,224.876,512,222.186,512z"/>
<circle style="fill:#8ED7E0;" cx="378.649" cy="126.561" r="126.561"/>
<g>
	<path style="fill:#7CC3D1;" d="M325.307,216.062c-29.459-49.427-29.459-129.565,0-178.992C340.037,12.356,359.343,0,378.649,0
		c-32.391,0-64.782,12.356-89.496,37.07c-49.427,49.427-49.427,129.565,0,178.992c24.714,24.714,57.105,37.07,89.496,37.07
		C359.343,253.133,340.037,240.776,325.307,216.062z"/>
	<path style="fill:#7CC3D1;" d="M16.052,279.32c-2.69,0-5.359-1.167-7.189-3.419c-3.224-3.968-2.623-9.797,1.345-13.021
		L296.891,29.887c3.968-3.224,9.797-2.621,13.021,1.345c3.224,3.968,2.623,9.797-1.345,13.021L21.885,277.248
		C20.168,278.642,18.104,279.32,16.052,279.32z"/>
	<path style="fill:#7CC3D1;" d="M83.776,430.695c-2.368,0-4.738-0.903-6.545-2.711c-3.615-3.615-3.615-9.476,0-13.089
		l250.076-250.076c3.615-3.615,9.476-3.615,13.089,0c3.615,3.615,3.615,9.476,0,13.089L90.322,427.983
		C88.514,429.792,86.145,430.695,83.776,430.695z"/>
</g>
<circle style="fill:#666666;" cx="431.31" cy="73.91" r="30.754"/>
<path style="fill:#7CC3D1;" d="M431.306,113.9c-10.246,0-20.492-3.9-28.29-11.7c-7.557-7.557-11.718-17.604-11.718-28.29
	c0-10.688,4.162-20.735,11.718-28.29c15.6-15.6,40.982-15.6,56.582,0c7.557,7.557,11.718,17.604,11.718,28.29
	s-4.162,20.734-11.718,28.29C451.796,110,441.55,113.9,431.306,113.9z M431.306,52.423c-5.504,0-11.01,2.096-15.201,6.287
	c-4.06,4.06-6.297,9.458-6.297,15.201c0,5.741,2.236,11.141,6.297,15.201c8.382,8.381,22.02,8.381,30.402,0
	c4.06-4.06,6.297-9.46,6.297-15.201c0-5.742-2.236-11.141-6.297-15.201C442.314,54.518,436.81,52.423,431.306,52.423z"/>
<g>
</g>
<g>
</g>
<g>
</g>
<g>
</g>
<g>
</g>
<g>
</g>
<g>
</g>
<g>
</g>
<g>
</g>
<g>
</g>
<g>
</g>
<g>
</g>
<g>
</g>
<g>
</g>
<g>
</g>
</svg>
