<?xml version="1.0" encoding="utf-8"?>
<!-- Generator: Adobe Illustrator 26.0.1, SVG Export Plug-In . SVG Version: 6.00 Build 0)  -->
<svg version="1.1" id="Capa_1" xmlns="http://www.w3.org/2000/svg" xmlns:xlink="http://www.w3.org/1999/xlink" x="0px" y="0px"
	 viewBox="0 0 512 512" style="enable-background:new 0 0 512 512;" xml:space="preserve">
<style type="text/css">
	.st0{fill:#7C7C7C;}
	.st1{fill:#5E5E5E;}
	.st2{fill:#4F4F4F;}
	.st3{fill:#3D3D3D;}
	.st4{fill:#383838;}
	.st5{fill:#4E4E4E;}
	.st6{fill:#393939;}
</style>
<g>
	<g>
		<path class="st0" d="M8,228.1c0-7.1,0-14.3,0-21.4c1.8-1.5,3.4-3.1,5.3-4.5c70.3-53,140.4-106.4,211.3-158.6
			c19.2-14.1,36-34,63-33.9c12.3,0.1,24.5-3.8,36.9-5.1C342,2.7,359.6,1.5,377.3,0c-1.6,3.5-2.7,7.4-4.8,10.5
			c-40.9,60.4-82.1,120.7-123,181.2c-17.7,26.2-35,52.6-52.5,79c-18.3-3.5-34.2-0.9-42.9,19.2c0.1,8.1-1.7,16.9,0.8,24.1
			c3.2,9.2,1.4,15.4-3.6,22.8c-34.4,50.1-68.5,100.4-102.8,150.5c-2.7,4-7,6.8-10.5,10.1c-1.2-9.3-2.5-18.7-3.4-28.1
			c-6-59.6-11.7-119.2-17.9-178.7C14.4,269.7,10.9,248.9,8,228.1z M106.6,184.9c-6.6,25.3,2.4,51.1,22.5,64.6
			c20.9,14,45.5,13.2,63.5-2.1c21.6-17.4,28.8-40.5,20.4-65.7c-8.2-24.7-29.1-39.6-55-39.1C134.2,143,113.8,159.8,106.6,184.9z"/>
		<path class="st0" d="M459.8,66c13.2,23.7,26.4,47.5,39.7,71.2c2,3.6,5,6.7,7.5,10c0,4,0,7.9,0,11.9c-4.2,7.1-9.4,13.7-12.6,21.2
			C466,246.7,438,313.4,409.9,380c-12.4,29.5-24.7,59.1-37.2,88.6c-1.8,4.2-4.3,8.1-6.5,12.2c2-11.9,3.4-23.9,6-35.6
			c16.7-74.7,33.7-149.3,50.6-224c8.5-3,17.1-6,25.6-8.9c18.2-15.1,17.8-42.4-0.8-56.8c-3.3-2.5-6.3-5.5-9.4-8.2
			c2.5-9.8,4.9-19.7,7.6-29.5C450.4,100.5,455.1,83.2,459.8,66z"/>
		<path class="st1" d="M459.8,66c-4.7,17.3-9.4,34.5-14,51.8c-2.6,9.8-5,19.7-7.6,29.5c-4.2,0.1-8.4-0.2-12.5,0.3
			c-15.6,1.7-26.8,11.2-30.6,25.5c-6.8,23.6,1.8,38.5,27.7,48.2c-16.9,74.7-33.9,149.3-50.6,224c-2.6,11.7-4,23.7-6,35.6
			c-3.1,7-5.2,19.1-9.3,19.9c-10.3,2-21.5-1.1-32.4-2.2c-4.7-49.4-29-84-73.8-99.8c-42-14.8-79.3-2.8-109.7,30.5
			c-16,17.5-27,38-25.5,63.6c-0.3,6.5-3.1,9.7-9.8,9.8c-20.4,0.3-40.8,1.3-61.1,1.4c-2.2,0-4.5-4.3-6.7-6.6
			c3.5-3.3,7.8-6.2,10.5-10.1c34.4-50.1,68.4-100.4,102.8-150.5c5-7.3,6.8-13.5,3.6-22.8c-2.5-7.2-0.7-16-0.8-24.1
			c16.4-3.4,32.2-3.7,42.4,13.3c3.5,5.7,5,12.6,8.7,22.3c3.2-7.6,6.4-12.4,7.4-17.7c2.9-15.8-4.4-27.5-15.6-37.1
			c17.5-26.3,34.8-52.8,52.5-79c40.9-60.5,82-120.8,123-181.2c2.1-3.1,3.2-7,4.8-10.5c3.4,1.1,7.4,1.3,10,3.4
			c22.5,17.8,44.9,35.8,67.1,54C456.8,59.4,458,63.1,459.8,66z M391,240.1c8.3-9.6,8-20.3-0.7-27c-8-6.2-16-4.2-22.3,5.5
			c-5.8,6.5-6.2,13.2,0,19.5C375,245.3,382.7,246.8,391,240.1z"/>
		<path class="st1" d="M192.6,247.4c-18.1,15.3-42.6,16.1-63.5,2.1c-20.1-13.5-29.1-39.3-22.5-64.6c2.5-0.9,5.1-1.6,7.5-2.8
			c21.9-10.7,41.8-7.2,60.3,8.5C192,205.5,194.8,225.6,192.6,247.4z"/>
		<path class="st2" d="M192.6,247.4c2.2-21.8-0.6-41.9-18.2-56.8c-18.5-15.7-38.5-19.1-60.3-8.5c-2.4,1.2-5,1.9-7.5,2.8
			c7.2-25.1,27.6-41.9,51.5-42.3c25.8-0.5,46.7,14.4,55,39.1C221.4,206.9,214.2,230,192.6,247.4z"/>
		<path class="st2" d="M197,270.7c11.2,9.6,18.5,21.3,15.6,37.1c-1,5.3-4.1,10.1-7.4,17.7c-3.7-9.7-5.2-16.6-8.7-22.3
			c-10.3-17-26-16.7-42.4-13.3C162.8,269.8,178.7,267.3,197,270.7z"/>
		<path class="st3" d="M115.5,492.7c-1.5-25.6,9.5-46.1,25.5-63.6c30.4-33.3,67.8-45.2,109.7-30.5c44.9,15.8,69.1,50.4,73.8,99.8
			c-12.9-23.5-28.7-44-52.5-56.8c-52.6-28.4-116.8-11.3-149.5,40.3C120.2,485.6,117.9,489.2,115.5,492.7z"/>
		<path class="st4" d="M422.9,221.2c-25.9-9.6-34.4-24.6-27.7-48.2c7.4-1.3,14.9-4.1,22.1-3.5c20.2,1.6,29.1,14.5,31.2,42.7
			C439.9,215.3,431.4,218.2,422.9,221.2z"/>
		<path class="st5" d="M448.5,212.3c-2.1-28.2-11-41.1-31.2-42.7c-7.2-0.6-14.7,2.2-22.1,3.5c3.7-14.3,15-23.7,30.6-25.5
			c4.1-0.5,8.3-0.2,12.5-0.3c3.1,2.7,6.1,5.7,9.4,8.2C466.3,169.9,466.7,197.2,448.5,212.3z"/>
		<path class="st6" d="M391,240.1c-8.3,6.7-16,5.2-23-2c-6.2-6.4-5.8-13,0-19.5C385.2,219.4,389.4,223.4,391,240.1z"/>
		<path class="st5" d="M391,240.1c-1.6-16.7-5.8-20.7-23-21.5c6.3-9.7,14.3-11.7,22.3-5.5C399,219.8,399.3,230.5,391,240.1z"/>
	</g>
</g>
</svg>
