<?xml version="1.0" encoding="utf-8"?>
<!-- Generator: Adobe Illustrator 26.0.1, SVG Export Plug-In . SVG Version: 6.00 Build 0)  -->
<svg version="1.1" id="Capa_1" xmlns="http://www.w3.org/2000/svg" xmlns:xlink="http://www.w3.org/1999/xlink" x="0px" y="0px"
	 viewBox="0 0 512 512" style="enable-background:new 0 0 512 512;" xml:space="preserve">
<style type="text/css">
	.st0{fill:#7C7C7C;}
	.st1{fill:#5E5E5E;}
	.st2{fill:#4F4F4F;}
	.st3{fill:#3D3D3D;}
	.st4{fill:#383838;}
	.st5{fill:#4E4E4E;}
	.st6{fill:#393939;}
</style>
<g>
	<g>
		<path class="st0" d="M72,61.1c0.7-1.4,1.4-2.8,2.1-4.1c0.5-0.1,1-0.3,1.5-0.3c19.3-3.1,38.6-6.3,57.9-9.1c5.2-0.8,10.5-2.9,16-0.1
			c2.5,1.3,5.3,1.8,7.9,2.8c3.7,1.4,7.4,3,11.1,4.5c-0.7,0.5-1.3,1.2-2,1.5c-14.1,7.5-28.2,14.9-42.3,22.4
			c-6.1,3.2-12.1,6.6-18.2,9.9c-3.4-2.5-6.8-3.6-10.5-0.7c-0.8,1.6-2,3.1-2.2,4.7c-0.3,2.1-1.2,3.1-2.9,4
			c-11.8,6.2-23.5,12.4-35.3,18.6c-0.9,0.5-2.1,0.6-3.1,0.9c0.7-1.9,1.3-3.9,2-5.8c4.6-12.1,9.2-24.1,13.7-36.2
			C69.2,69.7,70.5,65.4,72,61.1z M96,62.7c-3.8,4.2-4.5,10.1-1.7,14.7c2.9,4.8,7.9,7.2,13,6c6-1.2,9.7-4.9,10.5-10.6
			c0.7-5.6-2-10.6-7.3-13.1C105.6,57.5,99.9,58.6,96,62.7z"/>
		<path class="st0" d="M178.6,75.6c0.4,5.9,0.7,11.8,1.1,17.7c0.1,0.9,0.4,1.8,0.5,2.7c-0.4,0.8-0.8,1.5-1.2,2.3
			c-1.5,0.9-3.2,1.7-4.6,2.8c-12.2,9.9-24.3,19.9-36.4,29.9c-5.4,4.4-10.7,8.9-16.1,13.3c-0.8,0.6-1.7,1.1-2.5,1.7
			c1.5-2.1,3-4.3,4.7-6.2c10.6-12.7,21.3-25.3,31.9-38c2,0.3,4,0.6,6,0.9c5.1-1.1,7.7-6.4,5.3-11c-0.4-0.8-0.7-1.7-1.1-2.5
			c1.5-1.6,2.9-3.3,4.4-4.9C173.4,81.3,176,78.4,178.6,75.6z"/>
		<path class="st1" d="M178.6,75.6c-2.6,2.9-5.2,5.7-7.8,8.6c-1.5,1.6-2.9,3.3-4.4,4.9c-0.8-0.4-1.7-0.9-2.5-1.2
			c-3.3-1.2-6.5-0.6-8.6,1.8c-3.6,3.9-3.4,7.6,0.9,12.1c-10.6,12.7-21.3,25.3-31.9,38c-1.7,2-3.1,4.2-4.7,6.2
			c-1.3,1-2.9,3.2-3.8,2.9c-2.3-0.7-4.2-2.4-6.3-3.7c3.8-10,2.3-19.1-5.2-26.7c-7-7.1-15.7-8.6-25-5.3c-4.9,1.8-9.1,4.6-11.3,9.7
			c-0.7,1.2-1.6,1.6-2.9,0.9c-4.1-2-8.3-3.9-12.4-5.9c-0.4-0.2-0.5-1.3-0.7-1.9c1-0.3,2.2-0.4,3.1-0.9c11.8-6.2,23.5-12.4,35.3-18.6
			c1.7-0.9,2.7-1.9,2.9-4c0.2-1.6,1.4-3.1,2.2-4.7c3.6,1,6.8,2.6,7.3,6.9c0.1,1.4-0.2,2.9-0.4,5.2c1.4-1.1,2.5-1.7,3.2-2.7
			c2.1-2.8,1.8-5.7,0.5-8.7c6.1-3.3,12.1-6.7,18.2-9.9c14.1-7.5,28.2-14.9,42.3-22.4c0.7-0.4,1.3-1,2-1.5c0.6,0.6,1.4,1,1.7,1.7
			c2.8,5.7,5.6,11.4,8.3,17.2C178.7,74,178.6,74.9,178.6,75.6z M147.9,102.2c2.6-1,3.6-3.1,2.5-5.3c-1-2-2.8-2.4-5-1.2
			c-1.8,0.7-2.5,1.9-1.9,3.8C144.2,101.5,145.6,102.6,147.9,102.2z"/>
		<path class="st1" d="M107.3,83.5c-5.1,1.1-10.1-1.2-13-6c-2.7-4.6-2.1-10.5,1.7-14.7c0.6,0.1,1.2,0.2,1.8,0.2
			c5.4,0.2,9.1,2.9,11.3,7.7C111.2,75.3,109.8,79.5,107.3,83.5z"/>
		<path class="st2" d="M107.3,83.5c2.6-4,3.9-8.1,1.8-12.8c-2.2-4.9-5.9-7.6-11.3-7.7c-0.6,0-1.2-0.1-1.8-0.2
			c3.9-4.1,9.6-5.3,14.5-2.9c5.2,2.5,8,7.5,7.3,13.1C117,78.6,113.3,82.3,107.3,83.5z"/>
		<path class="st2" d="M105.9,88.4c1.3,3,1.7,6-0.5,8.7c-0.7,0.9-1.8,1.5-3.2,2.7c0.2-2.2,0.6-3.7,0.4-5.2c-0.4-4.3-3.6-5.9-7.3-6.9
			C99.1,84.8,102.5,85.9,105.9,88.4z"/>
		<path class="st3" d="M68,122.9c2.2-5.1,6.4-7.9,11.3-9.7c9.3-3.3,18-1.8,25,5.3c7.5,7.6,9,16.7,5.2,26.7
			c-0.3-5.8-1.5-11.4-5.1-16.3c-7.8-10.8-22.4-14-34-7.4C69.6,122,68.8,122.5,68,122.9z"/>
		<path class="st4" d="M156.2,101.8c-4.3-4.5-4.5-8.2-0.9-12.1c1.6,0.5,3.4,0.7,4.8,1.6c3.9,2.4,4.4,5.7,2.1,11.4
			C160.2,102.3,158.2,102.1,156.2,101.8z"/>
		<path class="st5" d="M162.2,102.6c2.3-5.7,1.8-9-2.1-11.4c-1.4-0.8-3.2-1.1-4.8-1.6c2.1-2.4,5.3-3.1,8.6-1.8
			c0.9,0.3,1.7,0.8,2.5,1.2c0.4,0.8,0.7,1.7,1.1,2.5C169.9,96.3,167.3,101.6,162.2,102.6z"/>
		<path class="st6" d="M147.9,102.2c-2.3,0.5-3.7-0.6-4.4-2.7c-0.6-1.9,0.1-3.1,1.9-3.8C148.8,97.6,149.2,98.8,147.9,102.2z"/>
		<path class="st5" d="M147.9,102.2c1.3-3.4,0.8-4.6-2.5-6.5c2.2-1.2,4-0.8,5,1.2C151.5,99.1,150.5,101.2,147.9,102.2z"/>
	</g>
</g>
<g>
	<g>
		<path class="st0" d="M344,73.8c15,4.4,29.4,10,44.2,14.7c-5.2-8.4-10.1-16.3-14.9-24c-1.5-2.5-3.1-4.9-4.6-7.4c0,0,0,0,0-0.1
			c-0.6-1-1.3-2-1.9-3c-2.3-3.8-4.7-7.5-7-11.3c0-0.1-0.1-0.1-0.1-0.2c-2.1-3.4-4.2-6.9-6.4-10.4c0-0.1-0.1-0.1-0.1-0.2
			c-3.4-5.6-6.9-11.4-10.6-17.4C327.6,23.6,335.7,59.8,344,73.8z M355,45.6c0.1,0,0.2,0,0.3,0.1c2.4,0.4,4.1,1.2,5.4,2.2
			c1.7,1.2,2.4,2.9,2.6,4.5c0,0.1,0,0.1,0,0.2c0.1,3-1.9,6-5,7.7c0,0,0,0-0.1,0c-2.4,1.3-5.6,1.7-9,0.4c-1.1-0.4-2.2-1-3.3-1.8
			c-0.9-0.7-1.6-1.5-2.1-2.3c0,0,0,0,0-0.1c-1.4-2.3-1.1-4.9,0.4-7c0,0,0,0,0,0C346.3,46.7,350.3,44.8,355,45.6z"/>
		<path class="st0" d="M414.7,47.2c-0.9-0.7-1.8-1.4-2.7-2.2C413,45.7,413.9,46.5,414.7,47.2z"/>
		<path class="st0" d="M412,45c-2.7-2.1-6-4.1-9.4-6.1c0,0,0,0,0,0c-6.2-3.7-12.8-7.5-17.1-11.7c-2.7-2.6-4.6-5.4-4.9-8.3
			c-1.5-2.3-4-3.3-6.7-4.1c-2.6-0.7-5.5-1.1-8.1-2c-2.6-0.9-5-2.4-6.8-5.2C385.9,4,395.7,30.6,412,45z"/>
		<path class="st1" d="M391.7,77.2c-1.5-1.6-3.4-3.4-4.9-5.9c-0.6-1.2-1-2.5-1.1-3.7C385.8,71.1,387.6,74.5,391.7,77.2z M367.9,57.7
			c0,0-0.1,0.1-0.1,0.1c-0.4,0.4-0.7,0.7-0.8,1.1c-0.4,1.1,0.4,2.2,3.3,2.8c1.1,0.8,2.1,1.7,3.1,2.7c-1.5-2.5-3.1-4.9-4.6-7.4
			C368.4,57.3,368.2,57.5,367.9,57.7z M371.8,56c1.4-0.2,3-0.1,4.7,0.4C375,55.7,373.3,55.7,371.8,56z M370.3,53.1
			c1.9,1.3,3.9,2.3,6.2,3.2C375,54.2,372.8,53.1,370.3,53.1z M395.2,53.9c4.8-2.2,10.9-2.8,16.7-1C405.8,50.8,399.9,51.6,395.2,53.9
			z M359.7,42.5c-2.1-3.4-4.2-6.9-6.4-10.4C355.3,35.7,357.4,39.2,359.7,42.5z M402.6,38.9c-5.7-4.3-11.2-8.6-17.1-11.7
			C389.8,31.4,396.4,35.2,402.6,38.9z M377.2,23.9c-2.4-0.7-4.8-1.1-7.4-1.2C372.1,24.6,374.5,25,377.2,23.9z M369.8,22.7
			c-0.6-1.8-1-3.4-1.5-4.9C367.4,19.2,367.6,20.9,369.8,22.7z M365.7,12.8c-1.4-1.8-3.4-3.4-6.8-5.2
			C360.7,10.4,363.1,11.8,365.7,12.8z"/>
		<path class="st1" d="M342.6,14.5c4.1,5.4,7.3,11.5,10.6,17.4c0,0.1,0.1,0.1,0.1,0.2c2.2,3.5,4.3,7,6.4,10.4c0,0.1,0.1,0.1,0.1,0.2
			c2.4,3.8,4.7,7.6,7,11.3c0.1-0.1,0.3-0.3,0.4-0.4c1-0.3,2-0.5,3-0.5c2.5,0,4.8,1.1,6.2,3.2c-1.7-0.4-3.3-0.5-4.7-0.4
			c-1.2,0.1-2.2,0.5-3.1,1c0,0,0,0,0,0.1c1.5,2.4,3,4.9,4.6,7.4c4.8,7.7,9.7,15.6,14.9,24c8.4-5.8,6.9-7.9,3.5-11.3
			c-4.1-2.7-5.9-6.1-6-9.6l0-0.1c-0.7-5.7,3.4-10.8,9.5-13.6c0,0,0.1,0,0.1,0c4.7-2.3,10.6-3.1,16.7-1c0.3,0.1,0.6,0.2,0.8,0.3
			c0.3,0.1,0.7,0.3,1,0.4c6-3.9,0.7-6.6-4-9.5c-2.5-1.7-4.8-3.4-7.1-5.2c0,0,0,0,0,0c-6.2-3.7-12.8-7.5-17.1-11.7
			c-2.7-2.6-4.6-5.4-4.9-8.3c-0.7-0.3-1.3-0.5-1.9-0.7c1.5,0.6,2.2,2.1,1,4.4c-0.8,0.6-1.7,1-2.4,1.3c-2.7,1.1-5.1,0.7-7.4-1.2l0,0
			c0,0,0,0,0,0c-2.2-1.8-2.3-3.5-1.5-4.9c0.9-1.6,3.2-2.7,5.6-3c-2.6-0.7-5.5-1.1-8.1-2c-2.6-0.9-5-2.4-6.8-5.2
			C354.6,8.8,340.4,10.6,342.6,14.5z M379.7,27.8c0.9,2.5-4.5,4-5.4,1.4C372,26,378.6,24.4,379.7,27.8z"/>
		<path class="st1" d="M363.2,52.5c0.1,3-1.9,6-5,7.7c0,0,0,0-0.1,0c-2.4,1.3-5.6,1.7-9,0.4c-1.1-0.4-2.2-1-3.3-1.8
			c-0.2-4.2,3.5-7.3,8-8.1c0.7-0.1,1.3-0.2,2-0.2C358.5,50.5,361,51.1,363.2,52.5z"/>
		<path class="st1" d="M346,58.8c1.1,0.8,2.2,1.4,3.3,1.8C348.1,60.3,347,59.7,346,58.8z"/>
		<path class="st1" d="M363.2,52.5C363.3,52.5,363.3,52.6,363.2,52.5c1,3.4-1.5,6.3-5,7.7C361.4,58.6,363.4,55.5,363.2,52.5z"/>
		<path class="st2" d="M355,45.6c0.1,0,0.2,0,0.3,0.1c2.4,0.4,4.1,1.2,5.4,2.2c1.7,1.2,2.4,2.9,2.6,4.5c0,0.1,0,0.1,0,0.2
			c-2.2-1.5-4.8-2.1-7.2-2c-0.7,0-1.4,0.1-2,0.2c-4.5,0.8-8.2,3.9-8,8.1c-0.9-0.8-1.6-1.5-2.1-2.3c0,0,0,0,0-0.1
			c-1.4-2.3-1.1-4.9,0.4-7c0,0,0,0,0,0C346.3,46.7,350.3,44.8,355,45.6z"/>
		<path class="st2" d="M344.3,49.5c-1.5,2.1-1.8,4.7-0.4,7C342,53.9,342.6,51.4,344.3,49.5z"/>
		<path class="st2" d="M363.2,52.5c0-0.1,0-0.1,0-0.2C363.3,52.4,363.3,52.5,363.2,52.5C363.3,52.6,363.3,52.5,363.2,52.5z"/>
		<path class="st2" d="M355.3,45.7c2,0.2,3.9,0.9,5.4,2.2C359.4,46.8,357.6,46.1,355.3,45.7z"/>
		<path class="st2" d="M376.5,56.3c-1.7-0.4-3.3-0.5-4.7-0.4c-1.2,0.1-2.2,0.5-3.1,1c-0.3,0.2-0.6,0.4-0.8,0.7c0,0-0.1,0.1-0.1,0.1
			c-0.3,0.3-0.6,0.7-0.8,1.1c-0.2,0.4-0.4,0.8-0.5,1.2c-2.2-2.3-1.4-4.3,0.4-6.2c0.1-0.1,0.3-0.3,0.4-0.4c1-0.3,2-0.5,3-0.5
			C372.8,53.1,375,54.2,376.5,56.3z"/>
		<path class="st3" d="M411.9,52.8c0.3,0.1,0.6,0.2,0.8,0.3c0.3,0.1,0.7,0.3,1,0.4c-17.3-1.2-29.1,13.8-19.4,25.2
			c-1-0.5-1.9-1-2.7-1.5c-4.1-2.7-5.9-6.1-6-9.6l0-0.1c-0.1-5.3,3.7-10.7,9.5-13.6c0,0,0.1,0,0.1,0
			C399.9,51.6,405.8,50.8,411.9,52.8z"/>
		<path class="st4" d="M376.4,17.8c0.8,0,1.6,0.1,2.2,0.4c1.5,0.6,2.2,2.1,1,4.4c-0.8,0.6-1.7,1-2.4,1.3c-2.7,1.1-5.1,0.7-7.4-1.2
			l0,0l0,0c0-1.5,0.8-2.6,2-3.4c0,0,0,0,0.1,0C373.1,18.3,374.8,17.8,376.4,17.8z"/>
		<path class="st5" d="M380.5,18.9c-0.7-0.3-1.3-0.5-1.9-0.7c-0.8-0.2-1.5-0.3-2.2-0.4c-2-0.1-3.5,0.4-4.6,1.4c0,0-0.1,0-0.1,0
			c-0.9,0.9-1.6,2-2,3.4l0,0c-2.2-1.8-2.3-3.5-1.5-4.9c0.9-1.6,3.2-2.7,5.6-3C376.7,14.5,379.7,15.6,380.5,18.9z"/>
		<path class="st6" d="M379.7,27.8c0.9,2.5-4.5,4-5.4,1.4C376,27.1,377,26.9,379.7,27.8z"/>
		<path class="st5" d="M379.7,27.8c-2.7-0.9-3.7-0.7-5.4,1.4C372,26,378.6,24.4,379.7,27.8z"/>
	</g>
</g>
<g>
	<g>
		<path class="st0" d="M425.8,456.8c-3.1,5.2-16.5,7.5-19.6,12.7c-2,0.3-3.9,0.7-5.9,0.9c-76.1,6.7-120.4,23.3-196.6,29.1
			c-20.6,1.6-41.9,8.4-62.2-3.9c-9.2-5.6-20.2-8.3-30.1-12.9c-14.1-6.6-28-13.6-42-20.5c2.7-1.8,5.2-4.2,8.2-5.5
			c57-25.3,82.5-60,139.5-85.3c24.7-11,49.2-22.3,73.7-33.5c12.4,10.8,25.5,16.1,40.8,5.5c3.4-5.9,8.6-11.4,9.8-17.8
			c1.6-8.1,5.6-11.8,12.6-14.8c47.6-20.7,95.1-41.8,142.7-62.6c3.8-1.6,8.2-1.8,12.3-2.6c-3.2,7.3-9.7,13.9-9.5,21.9
			c1.4,54.1-17.7,141-23.9,149.4C462.8,434,448.4,442.9,425.8,456.8z M322.3,440.9c15.9-15.3,20.3-38.1,10.8-56.9
			c-9.8-19.6-28.7-30.1-49-27.1c-23.8,2.8-39.2,16.3-43.7,38.4c-4.4,21.6,5,41.8,24.7,53.1C283.3,458.7,306,455.8,322.3,440.9z"/>
		<path class="st0" d="M35.4,377.3c0.2-23.2-31.2-55.8-31.1-79c0-3.5-0.9-7.1-1.4-10.6c1.7-2.9,3.4-5.7,5.1-8.6
			c6.3-3.2,13-5.7,18.7-9.7c50.1-35.4,100.1-71,150.1-106.5c22.1-15.8,44.2-31.7,66.3-47.4c3.2-2.3,6.8-3.9,10.1-5.9
			c-6.6,7.7-12.8,15.7-19.9,23c-44.9,46.5-89.9,92.9-134.9,139.4c-7.8-1.7-15.5-3.4-23.3-5.1c-20.3,2.7-31.7,22.7-23.9,41.5
			c1.4,3.3,2.4,6.8,3.6,10.2c-6.1,6-12.2,12.1-18.5,18C25.7,347,46.4,366.9,35.4,377.3z"/>
		<path class="st1" d="M35.4,377.3c11-10.4-9.7-30.3,1.2-40.8c6.2-5.9,12.3-12,18.5-18c3.2,1.8,6.2,3.9,9.6,5.4
			c12.6,5.8,25.1,4,34.1-4.7c15.3-14,15.2-28.7-0.2-47.3c45-46.4,90-92.8,134.9-139.4c7-7.3,13.3-15.3,19.9-23
			c5.3-3.7,12.2-11.5,15.7-10.2c8.7,3.2,60.6,37.2,68.4,42.9c-17.8,37.9-59.2,47.2-32,78.9c25.4,29.6,58.8,37.8,96.2,27.4
			c19.6-5.5,36.8-15.4,46.7-34.6c3-4.6,6.5-5.6,11.7-2.7c15.5,9,31.4,17.4,46.8,26.6c1.7,1,1.5,5.1,2.2,7.8c-4.1,0.8-8.5,1-12.3,2.6
			c-47.6,20.8-95.1,41.9-142.7,62.6c-7,3-11,6.7-12.6,14.8c-1.2,6.3-6.4,11.9-9.8,17.8c-13.9-4.9-25.9-11.8-26.4-28.8
			c-0.2-5.7,1.7-11.4,3-20.1c-5.7,4-10.2,6.1-13.2,9.5c-9,10.1-8.5,21.9-4.2,33.9c-24.6,11.2-49.1,22.6-73.7,33.5
			c-57,25.3-82.5,60-139.5,85.3c-3,1.3-5.5,3.6-8.2,5.5c-2.1-2.3-5-4.3-6.1-7c-9.4-23-18.5-46.1-27.5-69.3
			C34.8,383.4,35.5,380.2,35.4,377.3z M130.9,272.7c-10.4,3.2-14.8,11-11.1,19.9c3.4,8.1,10.3,10.3,19.3,6.1
			c7.2-2.1,10.4-6.7,8.4-14.1C145.2,276.1,140,271.5,130.9,272.7z"/>
		<path class="st1" d="M284.1,356.8c20.3-2.9,39.2,7.6,49,27.1c9.4,18.8,5.1,41.6-10.8,56.9c-2.3-0.5-4.5-1.1-6.8-1.4
			c-21.1-2.1-34.7-13.6-42-33.3C266.5,387.4,273.1,371.7,284.1,356.8z"/>
		<path class="st2" d="M284.1,356.8c-11,14.8-17.6,30.6-10.7,49.3c7.3,19.7,20.9,31.2,42,33.3c2.3,0.2,4.6,0.9,6.8,1.4
			c-16.3,14.9-38.9,17.9-57.2,7.4c-19.7-11.3-29.1-31.5-24.7-53.1C244.9,373.2,260.3,359.7,284.1,356.8z"/>
		<path class="st2" d="M290.8,338c-4.3-12-4.8-23.7,4.2-33.9c3-3.4,7.5-5.5,13.2-9.5c-1.4,8.7-3.2,14.4-3,20.1
			c0.5,16.9,12.5,23.8,26.4,28.8C316.3,354,303.2,348.7,290.8,338z"/>
		<path class="st3" d="M448.3,213.9c-9.9,19.2-27.1,29.1-46.7,34.6c-37.3,10.4-70.8,2.2-96.2-27.4c-27.1-31.6,14.3-41,32-78.9
			c-0.3,22.9-11.8,21.4-16.6,42c-12,50.7,70.6,56.9,117.6,34.3C441.6,217,444.9,215.5,448.3,213.9z"/>
		<path class="st4" d="M98.6,272c15.4,18.6,15.5,33.3,0.2,47.3c-6.1-2.4-13-3.7-18.2-7.4c-14.6-10.3-15.7-23.6-5.2-45
			C83.1,268.6,90.9,270.3,98.6,272z"/>
		<path class="st5" d="M75.4,266.9c-10.5,21.4-9.4,34.8,5.2,45c5.2,3.7,12.1,5,18.2,7.4c-9,8.6-21.5,10.4-34.1,4.7
			c-3.3-1.5-6.4-3.6-9.6-5.4c-1.2-3.4-2.2-6.9-3.6-10.2C43.6,289.6,55,269.7,75.4,266.9z"/>
		<path class="st6" d="M130.9,272.7c9.2-1.2,14.3,3.4,16.5,11.8c2,7.4-1.2,12-8.4,14.1C126.3,290.3,124.8,285.5,130.9,272.7z"/>
		<path class="st5" d="M130.9,272.7c-6,12.8-4.6,17.6,8.1,25.9c-9,4.2-15.9,2-19.3-6.1C116,283.8,120.4,275.9,130.9,272.7z"/>
	</g>
</g>
</svg>
