<?xml version="1.0" encoding="utf-8"?>
<!-- Generator: Adobe Illustrator 26.0.1, SVG Export Plug-In . SVG Version: 6.00 Build 0)  -->
<svg version="1.1" id="Capa_1" xmlns="http://www.w3.org/2000/svg" xmlns:xlink="http://www.w3.org/1999/xlink" x="0px" y="0px"
	 viewBox="0 0 512 512" style="enable-background:new 0 0 512 512;" xml:space="preserve">
<style type="text/css">
	.st0{fill:#7C7C7C;}
	.st1{fill:#5E5E5E;}
	.st2{fill:#4F4F4F;}
	.st3{fill:#3D3D3D;}
	.st4{fill:#383838;}
	.st5{fill:#4E4E4E;}
	.st6{fill:#393939;}
</style>
<g>
	<g>
		<path class="st0" d="M307.6,196.8c41.3,12,80.9,27.4,121.7,40.4c-14.2-23.2-27.7-44.9-40.9-66.2c-4.2-6.8-8.4-13.6-12.6-20.3
			c0-0.1-0.1-0.1-0.1-0.1c-1.7-2.8-3.4-5.5-5.2-8.3c-6.4-10.3-12.8-20.7-19.3-31.2c-0.1-0.1-0.3-0.3-0.3-0.5
			c-5.7-9.4-11.6-18.9-17.6-28.6c-0.1-0.2-0.2-0.3-0.3-0.5c-9.4-15.4-19-31.2-29.1-48C262.7,58.8,284.8,158.2,307.6,196.8z
			 M337.9,119.2c0.3,0,0.6,0.1,0.9,0.2c6.5,1.1,11.4,3.2,14.8,5.9c4.5,3.4,6.7,7.9,7.1,12.4c0,0.2,0,0.4,0,0.6
			c0.3,8.1-5.1,16.6-13.6,21.2c0,0-0.1,0-0.1,0.1c-6.7,3.6-15.4,4.7-24.6,1c-2.9-1.1-6-2.8-9-5c-2.6-1.9-4.5-4-5.9-6.2
			c0,0-0.1-0.1-0.1-0.1c-3.9-6.4-2.9-13.5,1.2-19.4c0,0,0,0,0,0C314,122.2,325,116.9,337.9,119.2z"/>
		<path class="st0" d="M502.3,123.6c-2.5-1.9-5-3.9-7.4-6.1C497.5,119.6,500,121.6,502.3,123.6z"/>
		<path class="st0" d="M494.9,117.6c-7.6-5.7-16.5-11.2-25.8-16.8c0,0,0,0,0,0c-17.1-10.3-35.2-20.6-47.2-32.1
			c-7.5-7.2-12.6-14.7-13.6-22.9c-4.2-6.4-11-9.2-18.5-11.2c-7.1-1.9-15-2.9-22.3-5.6c-7.2-2.6-13.8-6.6-18.6-14.4
			C423.1,4.7,450,78,494.9,117.6z"/>
		<path class="st1" d="M438.9,206.1c-4.2-4.3-9.4-9.3-13.5-16.4c-1.7-3.4-2.7-6.8-3.1-10.1C422.6,189.2,427.6,198.7,438.9,206.1z
			 M373.5,152.4c-0.1,0.1-0.2,0.2-0.3,0.3c-1.1,1-1.9,2-2.2,3.1c-1,3,1.2,6.1,9,7.7c3.1,2.3,5.9,4.8,8.5,7.5
			c-4.2-6.8-8.4-13.6-12.6-20.3C375,151.3,374.2,151.8,373.5,152.4z M384.2,147.8c3.8-0.5,8.2-0.1,12.9,1
			C393,147.1,388.4,147,384.2,147.8z M380,139.9c5.2,3.5,10.9,6.4,17.1,8.9C393.1,142.9,387,139.8,380,139.9z M448.6,142
			c13.3-6,30.1-7.8,46-2.9C477.6,133.4,461.4,135.6,448.6,142z M350.9,110.7c-5.7-9.4-11.6-18.9-17.6-28.6
			C338.9,91.9,344.5,101.7,350.9,110.7z M469,100.7c-15.8-11.8-30.9-23.6-47.2-32.1C433.8,80.1,451.9,90.5,469,100.7z M399.1,59.6
			c-6.5-1.8-13.3-2.9-20.4-3.3C385.1,61.5,391.7,62.6,399.1,59.6z M378.6,56.3c-1.6-5-2.8-9.4-4.2-13.6
			C372.1,46.6,372.6,51.4,378.6,56.3z M367.4,28.9c-3.8-4.9-9.5-9.5-18.6-14.4C353.6,22.3,360.2,26.3,367.4,28.9z"/>
		<path class="st1" d="M304,33.5c11.2,14.8,20,31.7,29,48c0.1,0.2,0.2,0.3,0.3,0.5c6,9.7,11.9,19.2,17.6,28.6
			c0.1,0.2,0.2,0.4,0.3,0.5c6.5,10.5,12.9,20.8,19.3,31.2c0.4-0.4,0.8-0.8,1.2-1.1c2.8-0.9,5.6-1.4,8.2-1.4c7-0.1,13.1,3,17.1,8.9
			c-4.7-1.1-9.1-1.5-12.9-1c-3.2,0.3-6.1,1.3-8.4,2.9c0,0,0,0.1,0.1,0.1c4.2,6.7,8.4,13.5,12.6,20.3c13.2,21.2,26.7,42.9,40.9,66.2
			c23.2-16,18.9-21.8,9.6-31.1c-11.3-7.4-16.3-16.9-16.6-26.5l0-0.2c-1.9-15.7,9.5-29.8,26.1-37.4c0,0,0.1-0.1,0.2-0.1
			c12.8-6.4,29-8.6,46-2.9c0.8,0.2,1.5,0.5,2.3,0.8c0.9,0.3,1.9,0.7,2.8,1.1c16.6-10.7,1.9-18.2-11-26c-6.7-4.6-13.3-9.4-19.6-14.2
			c0,0,0,0,0,0c-17.1-10.3-35.2-20.6-47.2-32.1c-7.5-7.2-12.6-14.7-13.6-22.9c-1.9-0.7-3.6-1.3-5.3-1.8c4.1,1.7,6.1,5.7,2.9,12.1
			c-2.3,1.5-4.6,2.7-6.7,3.6c-7.4,3-14,1.9-20.4-3.3l-0.1,0c0,0,0,0,0-0.1c-5.9-4.9-6.5-9.7-4.2-13.6c2.6-4.4,8.8-7.5,15.3-8.2
			c-7.1-1.9-15-2.9-22.3-5.6c-7.2-2.6-13.8-6.6-18.6-14.4C337,18,297.7,22.8,304,33.5z M406.1,70.3c2.4,6.8-12.3,11.1-14.8,3.7
			C384.8,65.2,402.9,60.8,406.1,70.3z"/>
		<path class="st1" d="M360.7,138.3c0.3,8.1-5.1,16.6-13.6,21.2c0,0-0.1,0-0.1,0.1c-6.7,3.6-15.4,4.7-24.6,1c-2.9-1.1-6-2.8-9-5
			c-0.5-11.5,9.6-20,22-22.2c1.8-0.3,3.6-0.6,5.5-0.6C347.5,132.5,354.6,134.2,360.7,138.3z"/>
		<path class="st1" d="M313.3,155.6c3,2.2,6.1,3.9,9,5C319,159.5,316,157.9,313.3,155.6z"/>
		<path class="st1" d="M360.7,138.3c0,0,0.1,0,0.1,0.1c2.5,9.3-4.1,17.2-13.8,21.2C355.5,154.9,361,146.4,360.7,138.3z"/>
		<path class="st2" d="M337.9,119.2c0.3,0,0.6,0.1,0.9,0.2c6.5,1.1,11.4,3.2,14.8,5.9c4.5,3.4,6.7,7.9,7.1,12.4c0,0.2,0,0.4,0,0.6
			c-6.1-4.1-13.2-5.7-19.9-5.5c-1.9,0.1-3.7,0.3-5.5,0.6c-12.3,2.3-22.5,10.8-22,22.2c-2.5-2.1-4.5-4.2-5.9-6.2c0,0-0.1-0.1-0.1-0.1
			c-3.9-6.4-2.9-13.5,1.2-19.4c0,0,0,0,0,0C314,122.2,325,116.9,337.9,119.2z"/>
		<path class="st1" d="M223.9,170.6c0.3,8.1-5.1,16.6-13.6,21.2c0,0-0.1,0-0.1,0.1c-6.7,3.6-15.4,4.7-24.6,1c-2.9-1.1-6-2.8-9-5
			c-0.5-11.5,9.6-20,22-22.2c1.8-0.3,3.6-0.6,5.5-0.6C210.8,164.8,217.8,166.5,223.9,170.6z"/>
		<path class="st2" d="M201.1,151.5c0.3,0,0.6,0.1,0.9,0.2c6.5,1.1,11.4,3.2,14.8,5.9c4.5,3.4,6.7,7.9,7.1,12.4c0,0.2,0,0.4,0,0.6
			c-6.1-4.1-13.2-5.7-19.9-5.5c-1.9,0.1-3.7,0.3-5.5,0.6c-12.3,2.3-22.5,10.8-22,22.2c-2.5-2.1-4.5-4.2-5.9-6.2c0,0-0.1-0.1-0.1-0.1
			c-3.9-6.4-2.9-13.5,1.2-19.4c0,0,0,0,0,0C177.3,154.4,188.3,149.2,201.1,151.5z"/>
		<path class="st2" d="M308.5,129.9c-4.1,5.8-5.1,13-1.2,19.4C302.3,142,303.7,135.2,308.5,129.9z"/>
		<path class="st2" d="M360.7,138.3c0-0.2,0-0.3,0-0.6c0.1,0.2,0.1,0.4,0.2,0.6C360.7,138.3,360.7,138.3,360.7,138.3z"/>
		<path class="st2" d="M338.8,119.4c5.5,0.5,10.8,2.4,14.8,5.9C350.1,122.6,345.3,120.5,338.8,119.4z"/>
		<path class="st2" d="M397.1,148.7c-4.7-1.1-9.1-1.5-12.9-1c-3.2,0.3-6.1,1.3-8.4,2.9c-0.8,0.5-1.6,1.1-2.3,1.8
			c-0.1,0.1-0.2,0.2-0.3,0.3c-0.9,0.9-1.6,1.9-2.2,3.1c-0.6,1-1,2.2-1.4,3.4c-6-6.2-4-11.7,1.1-16.9c0.4-0.4,0.8-0.8,1.2-1.1
			c2.8-0.9,5.6-1.4,8.2-1.4C387,139.8,393.1,142.9,397.1,148.7z"/>
		<path class="st3" d="M494.6,139.1c0.8,0.2,1.5,0.5,2.3,0.8c0.9,0.3,1.9,0.7,2.8,1.1c-47.6-3.4-80.1,38-53.4,69.3
			c-2.7-1.3-5.2-2.7-7.4-4.1c-11.3-7.4-16.3-16.9-16.6-26.5l0-0.2c-0.4-14.5,10.1-29.3,26.1-37.4c0,0,0.1-0.1,0.2-0.1
			C461.4,135.6,477.6,133.4,494.6,139.1z"/>
		<path class="st4" d="M396.8,42.8c2.3,0,4.4,0.3,6.1,1.1c4.1,1.7,6.1,5.7,2.9,12.1c-2.3,1.5-4.6,2.7-6.7,3.6
			c-7.4,3-14,1.9-20.4-3.3l0,0l0,0c-0.1-4,2.1-7.2,5.4-9.5c0,0,0.1-0.1,0.2-0.1C387.7,44.2,392.6,42.8,396.8,42.8z"/>
		<path class="st5" d="M408.2,45.7c-1.9-0.7-3.6-1.3-5.3-1.8c-2.2-0.6-4.2-1-6.1-1.1c-5.4-0.4-9.6,1.1-12.7,3.9
			c-0.1,0-0.1,0.1-0.2,0.1c-2.5,2.3-4.3,5.6-5.4,9.5l0,0c-5.9-4.9-6.5-9.7-4.2-13.6c2.6-4.4,8.8-7.5,15.3-8.2
			C397.7,33.7,406,36.6,408.2,45.7z"/>
		<path class="st6" d="M406.1,70.3c2.4,6.8-12.3,11.1-14.8,3.7C395.8,68.3,398.5,67.6,406.1,70.3z"/>
		<path class="st5" d="M406.1,70.3c-7.5-2.6-10.2-1.9-14.8,3.7C384.8,65.2,402.9,60.8,406.1,70.3z"/>
	</g>
</g>
<g>
	<g>
		<path class="st0" d="M65.4,57.2c-6.6,10.5-13.9,20.2-20.7,30.5c7.5-2.1,14.6-4.1,21.5-6.1c2.2-0.6,4.4-1.3,6.6-1.9c0,0,0,0,0,0
			c0.9-0.3,1.8-0.5,2.7-0.8c3.4-1,6.7-1.9,10.1-2.9c0.1,0,0.1,0,0.2-0.1c3-0.8,6.1-1.7,9.3-2.6c0.1,0,0.1,0,0.2,0
			c5-1.4,10.1-2.8,15.5-4.3C107.1,55.6,77.9,53.9,65.4,57.2z M84.5,71.7c0,0.1-0.1,0.2-0.1,0.2c-0.8,1.7-1.8,2.9-2.8,3.6
			c-1.3,1-2.7,1.2-4,1c-0.1,0-0.1,0-0.2,0c-2.3-0.6-4.2-2.7-4.8-5.4c0,0,0,0,0,0c-0.5-2.1-0.1-4.6,1.6-6.9c0.5-0.7,1.2-1.4,2.1-2.1
			c0.7-0.6,1.5-0.9,2.2-1.1c0,0,0,0,0,0c2.1-0.6,4,0.2,5.3,1.8c0,0,0,0,0,0C85.6,64.8,86.2,68.3,84.5,71.7z"/>
		<path class="st0" d="M70.5,116.7c0.7-0.5,1.5-1.1,2.3-1.6C72,115.7,71.2,116.3,70.5,116.7z"/>
		<path class="st0" d="M72.7,115.2c2.2-1.6,4.4-3.7,6.7-5.8c0,0,0,0,0,0c4.2-3.9,8.4-8.1,12.5-10.5c2.6-1.5,5.1-2.3,7.4-2
			c2.1-0.7,3.4-2.3,4.5-4.2c1.1-1.8,2-3.9,3.3-5.7c1.3-1.8,2.9-3.3,5.4-4C109.5,104.2,87.1,105.9,72.7,115.2z"/>
		<path class="st1" d="M52.6,92.8c1.5-0.8,3.3-1.9,5.6-2.4c1.1-0.2,2.1-0.2,3-0.1C58.6,89.6,55.5,90.2,52.6,92.8z M72.6,78.9
			c0,0,0-0.1-0.1-0.1c-0.2-0.4-0.4-0.7-0.7-0.9c-0.7-0.5-1.8-0.1-2.8,1.9c-0.9,0.7-1.8,1.2-2.7,1.8c2.2-0.6,4.4-1.3,6.6-1.9
			C72.8,79.4,72.7,79.1,72.6,78.9z M73,82.2c-0.2,1.1-0.6,2.3-1.3,3.5C72.5,84.7,72.9,83.5,73,82.2z M75.5,81.7
			c-1.4,1.2-2.6,2.5-3.8,4C73.7,85.1,75,83.6,75.5,81.7z M69.6,100.5c0.6,4.2-0.2,8.9-2.8,12.9C69.7,109.2,70.3,104.5,69.6,100.5z
			 M85.9,75.9c3-0.8,6.1-1.7,9.3-2.6C92,74.1,88.8,74.9,85.9,75.9z M79.4,109.3c4.5-3.4,8.9-6.7,12.5-10.5
			C87.8,101.2,83.6,105.4,79.4,109.3z M96.2,93.2c1-1.7,1.8-3.4,2.5-5.4C96.8,89.2,96,90.9,96.2,93.2z M98.7,87.8
			c1.5-0.1,2.8,0,4.1-0.1C101.9,86.8,100.6,86.6,98.7,87.8z M107.2,86.9c1.6-0.7,3.4-1.9,5.4-4C110.1,83.6,108.4,85.1,107.2,86.9z"
			/>
		<path class="st1" d="M110.8,69c-5,1.9-10.3,3.1-15.5,4.3c-0.1,0-0.1,0-0.2,0c-3.2,0.9-6.2,1.8-9.3,2.6c-0.1,0-0.1,0-0.2,0.1
			c-3.4,1-6.8,1.9-10.1,2.9c0.1,0.1,0.2,0.3,0.2,0.4c0,0.9-0.1,1.6-0.3,2.4c-0.5,1.9-1.9,3.4-3.8,4c0.7-1.2,1.1-2.4,1.3-3.5
			c0.2-0.9,0.1-1.8-0.1-2.6c0,0,0,0,0,0c-2.2,0.6-4.4,1.3-6.6,1.9c-6.9,2-13.9,4-21.5,6.1c2.6,7.6,4.5,6.9,7.8,5.1
			c2.9-2.5,5.9-3.2,8.6-2.5l0,0c4.5,0.7,7.5,4.9,8.3,10.1c0,0,0,0,0,0.1c0.8,4,0.1,8.7-2.8,12.9c-0.1,0.2-0.3,0.4-0.4,0.6
			c-0.2,0.2-0.3,0.5-0.5,0.7c1.7,5.4,4.9,2,8.1-1c1.8-1.5,3.6-2.9,5.5-4.3c0,0,0,0,0,0c4.2-3.9,8.4-8.1,12.5-10.5
			c2.6-1.5,5.1-2.3,7.4-2c0.4-0.5,0.7-0.9,0.9-1.3c-0.8,1-2,1.2-3.6-0.2c-0.2-0.8-0.4-1.5-0.5-2.1c-0.2-2.3,0.6-4,2.5-5.4l0,0
			c0,0,0,0,0,0c1.8-1.3,3.2-1,4.1-0.1c1,1,1.4,3,1.1,4.9c1.1-1.8,2-3.9,3.3-5.7c1.3-1.8,2.9-3.3,5.4-4
			C112.6,79.3,114.3,68.1,110.8,69z M92.7,94.3c-2.1,0.1-2.1-4.3,0.1-4.4C95.8,88.8,95.6,94.2,92.7,94.3z"/>
		<path class="st1" d="M77.5,76.5c-2.3-0.6-4.2-2.7-4.8-5.4c0,0,0,0,0,0c-0.5-2.1-0.1-4.6,1.6-6.9c0.5-0.7,1.2-1.4,2.1-2.1
			c3.2,0.8,4.8,4.2,4.4,7.8c-0.1,0.5-0.1,1-0.3,1.6C80.1,73.3,79.1,75.1,77.5,76.5z"/>
		<path class="st1" d="M76.4,62c-0.8,0.7-1.5,1.4-2.1,2.1C74.9,63.3,75.5,62.6,76.4,62z"/>
		<path class="st1" d="M77.5,76.5C77.5,76.5,77.5,76.5,77.5,76.5c-2.8,0-4.5-2.5-4.8-5.4C73.3,73.7,75.2,75.9,77.5,76.5z"/>
		<path class="st2" d="M84.5,71.7c0,0.1-0.1,0.2-0.1,0.2c-0.8,1.7-1.8,2.9-2.8,3.6c-1.3,1-2.7,1.2-4,1c-0.1,0-0.1,0-0.2,0
			c1.6-1.4,2.6-3.2,3.1-5.1c0.1-0.5,0.2-1,0.3-1.6c0.3-3.6-1.2-7-4.4-7.8c0.8-0.5,1.5-0.9,2.2-1.1c0,0,0,0,0,0
			c2.1-0.6,4,0.2,5.3,1.8c0,0,0,0,0,0C85.6,64.8,86.2,68.3,84.5,71.7z"/>
		<path class="st1" d="M79.2,36.2c-2.3-0.6-4.2-2.7-4.8-5.4c0,0,0,0,0,0c-0.5-2.1-0.1-4.6,1.6-6.9c0.5-0.7,1.2-1.4,2.1-2.1
			c3.2,0.8,4.8,4.2,4.4,7.8c-0.1,0.5-0.1,1-0.3,1.6C81.8,33,80.8,34.8,79.2,36.2z"/>
		<path class="st2" d="M86.3,31.3c0,0.1-0.1,0.2-0.1,0.2c-0.8,1.7-1.8,2.9-2.8,3.6c-1.3,1-2.7,1.2-4,1c-0.1,0-0.1,0-0.2,0
			c1.6-1.4,2.6-3.2,3.1-5.1c0.1-0.5,0.2-1,0.3-1.6c0.3-3.6-1.2-7-4.4-7.8c0.8-0.5,1.5-0.9,2.2-1.1c0,0,0,0,0,0
			c2.1-0.6,4,0.2,5.3,1.8c0,0,0,0,0,0C87.3,24.5,87.9,28,86.3,31.3z"/>
		<path class="st2" d="M83.9,62.7c-1.3-1.6-3.2-2.4-5.3-1.8C81,60.1,82.8,61,83.9,62.7z"/>
		<path class="st2" d="M77.5,76.5c0,0,0.1,0,0.2,0C77.6,76.5,77.5,76.5,77.5,76.5C77.5,76.5,77.5,76.5,77.5,76.5z"/>
		<path class="st2" d="M84.4,71.9c-0.6,1.5-1.5,2.8-2.8,3.6C82.6,74.8,83.6,73.6,84.4,71.9z"/>
		<path class="st2" d="M71.7,85.7c0.7-1.2,1.1-2.4,1.3-3.5c0.2-0.9,0.1-1.8-0.1-2.6c-0.1-0.3-0.2-0.5-0.3-0.8c0,0,0-0.1-0.1-0.1
			c-0.2-0.3-0.4-0.6-0.7-0.9c-0.2-0.2-0.5-0.5-0.8-0.7c2.2-1.2,3.6-0.2,4.6,1.6c0.1,0.1,0.2,0.3,0.2,0.4c0,0.9-0.1,1.6-0.3,2.4
			C75,83.6,73.7,85.1,71.7,85.7z"/>
		<path class="st3" d="M66.8,113.4c-0.1,0.2-0.3,0.4-0.4,0.6c-0.2,0.2-0.3,0.5-0.5,0.7c4.7-12.9-4.3-25.1-15-20.2
			c0.6-0.6,1.1-1.2,1.7-1.7c2.9-2.5,5.9-3.2,8.6-2.5l0,0c4,1,7.3,5.1,8.3,10.1c0,0,0,0,0,0.1C70.3,104.5,69.7,109.2,66.8,113.4z"/>
		<path class="st4" d="M101,93.9c-0.2,0.6-0.4,1.2-0.8,1.6c-0.8,1-2,1.2-3.6-0.2c-0.2-0.8-0.4-1.5-0.5-2.1c-0.2-2.3,0.6-4,2.5-5.4
			l0,0l0,0c1.1,0.3,1.8,1.1,2.2,2.2c0,0,0,0,0,0.1C101.4,91.3,101.4,92.7,101,93.9z"/>
		<path class="st5" d="M99.3,96.8c0.4-0.5,0.7-0.9,0.9-1.3c0.3-0.6,0.6-1.1,0.8-1.6c0.5-1.5,0.4-2.7-0.1-3.8c0,0,0,0,0-0.1
			c-0.4-0.9-1.2-1.6-2.2-2.2l0,0c1.8-1.3,3.2-1,4.1-0.1c1,1,1.4,3,1.1,4.9C103.5,94.9,102,96.9,99.3,96.8z"/>
		<path class="st6" d="M92.7,94.3c-2.1,0.1-2.1-4.3,0.1-4.4C94.1,91.7,94,92.4,92.7,94.3z"/>
		<path class="st5" d="M92.7,94.3c1.3-1.9,1.3-2.7,0.1-4.4C95.8,88.8,95.6,94.2,92.7,94.3z"/>
	</g>
</g>
<g>
	<g>
		<path class="st0" d="M69.9,280.4c1.7-3.4,3.4-6.8,5.2-10.3c1.2-0.3,2.5-0.6,3.7-0.8c47.9-7.6,95.8-15.6,143.8-22.7
			c13-1.9,26.2-7.2,39.6-0.4c6.1,3.1,13.2,4.4,19.7,6.8c9.3,3.5,18.4,7.4,27.6,11.1c-1.6,1.3-3.1,2.9-4.9,3.8
			c-35,18.6-70.1,37.1-105.1,55.7c-15.2,8.1-30.2,16.4-45.2,24.6c-8.3-6.3-16.9-9-26.1-1.6c-1.9,3.9-4.9,7.6-5.4,11.7
			c-0.6,5.2-3,7.7-7.3,10c-29.3,15.3-58.4,30.8-87.7,46.1c-2.3,1.2-5.1,1.5-7.7,2.2c1.7-4.8,3.2-9.6,5-14.3c11.4-30,22.9-60,34.1-90
			C63,301.9,66.3,291.1,69.9,280.4z M129.6,284.5c-9.4,10.4-11.1,25-4.3,36.6c7.1,12,19.6,17.8,32.3,15c15-2.9,24.1-12.1,26-26.3
			c1.8-13.9-5-26.3-18.1-32.6C153.4,271.4,139.2,274.3,129.6,284.5z"/>
		<path class="st0" d="M334.8,316.5c0.9,14.7,1.7,29.4,2.7,44.1c0.1,2.2,0.9,4.4,1.3,6.7c-1,1.9-1.9,3.8-2.9,5.7
			c-3.8,2.3-8,4.2-11.4,7c-30.2,24.7-60.3,49.5-90.3,74.3c-13.3,11-26.6,22.1-39.9,33c-1.9,1.6-4.1,2.8-6.2,4.2
			c3.8-5.2,7.4-10.6,11.6-15.5c26.3-31.5,52.8-63,79.2-94.4c5,0.7,10,1.4,15,2.2c12.8-2.6,19.1-15.8,13.3-27.4c-1-2-1.8-4.2-2.7-6.3
			c3.6-4.1,7.2-8.2,10.9-12.2C321.8,330.7,328.3,323.6,334.8,316.5z"/>
		<path class="st1" d="M334.8,316.5c-6.5,7.1-13,14.2-19.5,21.3c-3.7,4-7.3,8.2-10.9,12.2c-2.1-1-4.1-2.2-6.3-3
			c-8.2-3.1-16.1-1.4-21.4,4.5c-9.1,9.6-8.4,18.9,2.2,30c-26.4,31.5-52.9,62.9-79.2,94.4c-4.1,4.9-7.7,10.3-11.6,15.5
			c-3.2,2.6-7.2,7.8-9.5,7.2c-5.6-1.6-10.5-6-15.6-9.2c9.6-24.8,5.8-47.5-12.9-66.3c-17.4-17.6-39-21.3-62.2-13
			c-12.2,4.3-22.7,11.4-28.1,24c-1.7,3.1-3.9,3.9-7.3,2.2c-10.3-5-20.7-9.6-30.9-14.7c-1.1-0.6-1.2-3.2-1.8-4.8
			c2.6-0.7,5.4-1,7.7-2.2c29.2-15.3,58.4-30.8,87.7-46.1c4.3-2.2,6.7-4.8,7.3-10c0.5-4.1,3.5-7.8,5.4-11.7c9,2.5,17,6.3,18,17
			c0.4,3.6-0.5,7.3-1,12.9c3.4-2.8,6.2-4.3,8-6.6c5.2-6.8,4.4-14.2,1.1-21.7c15.1-8.2,30.1-16.5,45.2-24.6
			c35-18.6,70.1-37.1,105.1-55.7c1.8-1,3.3-2.5,4.9-3.8c1.4,1.4,3.4,2.5,4.2,4.2c7,14.2,13.8,28.4,20.5,42.7
			C334.9,312.6,334.6,314.7,334.8,316.5z M258.5,382.5c6.5-2.5,8.9-7.7,6.2-13.1c-2.5-5-7-6.1-12.5-3c-4.5,1.7-6.3,4.7-4.7,9.3
			C249.3,381,252.7,383.6,258.5,382.5z"/>
		<path class="st1" d="M157.5,336.1c-12.7,2.8-25.2-3-32.3-15c-6.8-11.5-5.1-26.1,4.3-36.6c1.5,0.2,2.9,0.5,4.4,0.6
			c13.5,0.4,22.6,7.1,28.1,19.2C167.3,315.9,163.9,326.2,157.5,336.1z"/>
		<path class="st2" d="M157.5,336.1c6.3-9.9,9.8-20.2,4.6-31.8c-5.5-12.2-14.6-18.8-28.1-19.2c-1.5,0-2.9-0.4-4.4-0.6
			c9.6-10.2,23.9-13.1,35.9-7.3c13,6.3,19.9,18.6,18.1,32.6C181.7,323.9,172.5,333.2,157.5,336.1z"/>
		<path class="st2" d="M154.1,348.3c3.3,7.4,4.1,14.8-1.1,21.7c-1.8,2.3-4.5,3.8-8,6.6c0.5-5.5,1.4-9.3,1-12.9
			c-1.1-10.7-9-14.5-18-17C137.2,339.3,145.8,342.1,154.1,348.3z"/>
		<path class="st3" d="M59.9,434.1c5.4-12.6,15.9-19.7,28.1-24c23.2-8.3,44.8-4.6,62.2,13c18.6,18.8,22.4,41.5,12.9,66.3
			c-0.8-14.5-3.8-28.3-12.6-40.4C131,422.2,94.8,414.2,66,430.7C64,431.8,61.9,432.9,59.9,434.1z"/>
		<path class="st4" d="M279,381.5c-10.6-11.1-11.3-20.4-2.2-30c4,1.2,8.4,1.8,11.9,3.9c9.7,5.8,11,14.3,5.3,28.3
			C289,382.9,284,382.2,279,381.5z"/>
		<path class="st5" d="M293.9,383.7c5.7-14,4.4-22.5-5.3-28.3c-3.5-2.1-7.9-2.6-11.9-3.9c5.3-5.9,13.2-7.6,21.4-4.5
			c2.2,0.8,4.2,2,6.3,3c0.9,2.1,1.7,4.3,2.7,6.3C313,367.9,306.7,381,293.9,383.7z"/>
		<path class="st6" d="M258.5,382.5c-5.8,1.1-9.2-1.5-11-6.7c-1.6-4.6,0.2-7.7,4.7-9.3C260.6,371.2,261.7,374.1,258.5,382.5z"/>
		<path class="st5" d="M258.5,382.5c3.3-8.4,2.1-11.3-6.3-16.1c5.5-3.1,10-2,12.5,3C267.4,374.8,265,380,258.5,382.5z"/>
	</g>
</g>
<g>
	<g>
		<path class="st0" d="M434,457.9c0.2-0.4,0.4-0.8,0.6-1.2c0.2,0,0.4,0,0.6,0c8.1,0.4,16.1,0.7,24.2,1.2c2.2,0.1,4.3-0.2,6.8,1.1
			c1.1,0.6,2.4,0.9,3.6,1.5c1.7,0.7,3.4,1.5,5.1,2.2c-0.2,0.1-0.5,0.3-0.7,0.4c-5.5,1.4-11,2.8-16.5,4.2c-2.4,0.6-4.7,1.3-7.1,1.9
			c-1.6-1.1-3.2-1.7-4.5-1c-0.2,0.4-0.6,0.8-0.6,1.4c0,0.7-0.3,0.9-1,1.1c-4.6,1.1-9.2,2.3-13.8,3.5c-0.4,0.1-0.8,0-1.3,0.1
			c0.2-0.6,0.3-1.1,0.5-1.7c1.1-3.6,2.2-7.1,3.3-10.7C433.4,460.5,433.7,459.2,434,457.9z M444.4,460.2c-1.3,1.1-1.2,2.9,0.3,4.6
			c1.6,1.8,3.9,2.9,6,2.9c2.5,0.1,3.8-0.9,3.7-2.7c-0.1-1.8-1.6-3.6-4.1-4.7C448.1,459.2,445.8,459.1,444.4,460.2z"/>
		<path class="st0" d="M480.7,470.3c0.6,1.9,1.2,3.9,1.7,5.8c0.1,0.3,0.3,0.6,0.4,0.9c-0.1,0.2-0.2,0.4-0.3,0.7
			c-0.6,0.2-1.3,0.3-1.8,0.6c-4.5,2.3-9,4.7-13.4,7c-2,1-4,2.1-5.9,3.1c-0.3,0.1-0.6,0.2-0.9,0.4c0.5-0.6,1-1.2,1.5-1.7
			c3.6-3.3,7.3-6.6,10.9-10c0.9,0.2,1.8,0.5,2.6,0.7c2.1,0,2.8-1.5,1.5-3.2c-0.2-0.3-0.4-0.6-0.7-0.9c0.5-0.4,1-0.9,1.5-1.3
			C478.9,471.7,479.8,471,480.7,470.3z"/>
		<path class="st1" d="M480.7,470.3c-0.9,0.7-1.8,1.5-2.7,2.2c-0.5,0.4-1,0.8-1.5,1.3c-0.4-0.2-0.8-0.4-1.2-0.6
			c-1.5-0.6-2.8-0.6-3.6,0c-1.3,1-0.9,2.2,1.3,4c-3.7,3.3-7.3,6.6-10.9,10c-0.6,0.5-1,1.1-1.5,1.7c-0.5,0.2-1,0.8-1.4,0.7
			c-1-0.4-2-1.1-3-1.6c0.9-2.9-0.4-6-4.1-9c-3.5-2.8-7.3-3.9-11.1-3.5c-2,0.2-3.6,0.8-4.1,2.3c-0.2,0.3-0.6,0.4-1.2,0.1
			c-1.9-0.9-3.8-1.8-5.8-2.8c-0.2-0.1-0.3-0.4-0.4-0.7c0.4,0,0.9,0,1.3-0.1c4.6-1.1,9.2-2.3,13.8-3.5c0.7-0.2,1-0.4,1-1.1
			c0-0.5,0.4-0.9,0.6-1.4c1.6,0.6,3.1,1.3,3.6,2.7c0.2,0.5,0.1,0.9,0.2,1.6c0.5-0.3,0.9-0.4,1.2-0.6c0.7-0.7,0.4-1.7-0.4-2.8
			c2.4-0.6,4.7-1.3,7.1-1.9c5.5-1.4,11-2.8,16.5-4.2c0.3-0.1,0.5-0.2,0.7-0.4c0.3,0.2,0.7,0.4,0.8,0.7c1.6,2,3.2,4.1,4.8,6.1
			C480.6,469.8,480.6,470,480.7,470.3z M469.5,476.6c1-0.1,1.3-0.7,0.7-1.5c-0.6-0.7-1.4-1-2.2-0.7c-0.7,0.1-0.9,0.4-0.5,1.1
			C467.8,476.2,468.5,476.6,469.5,476.6z"/>
		<path class="st1" d="M450.7,467.7c-2.1,0-4.4-1.1-6-2.9c-1.5-1.7-1.6-3.5-0.3-4.6c0.3,0.1,0.5,0.2,0.8,0.2
			c2.3,0.4,4.1,1.6,5.4,3.3C451.8,465.4,451.5,466.6,450.7,467.7z"/>
		<path class="st2" d="M450.7,467.7c0.8-1.1,1.1-2.3-0.1-4c-1.3-1.7-3.1-2.9-5.4-3.3c-0.3,0-0.5-0.1-0.8-0.2c1.4-1,3.7-1,6,0.1
			c2.4,1.2,4,3,4.1,4.7C454.5,466.8,453.2,467.7,450.7,467.7z"/>
		<path class="st2" d="M450.5,469.2c0.8,1.1,1.1,2,0.4,2.8c-0.2,0.2-0.7,0.4-1.2,0.6c-0.1-0.7,0-1.2-0.2-1.6c-0.5-1.4-2-2.1-3.6-2.7
			C447.3,467.5,448.8,468.1,450.5,469.2z"/>
		<path class="st3" d="M436.7,477.6c0.6-1.5,2.2-2.1,4.1-2.3c3.8-0.4,7.6,0.7,11.1,3.5c3.8,3,5.1,6,4.1,9c-0.6-1.9-1.5-3.8-3.3-5.6
			c-4.1-4-10.6-6.1-15.1-4.8C437.3,477.4,437,477.5,436.7,477.6z"/>
		<path class="st4" d="M473,477.1c-2.2-1.7-2.5-3-1.3-4c0.7,0.3,1.5,0.5,2.2,0.8c1.8,1,2.3,2.2,1.7,3.8
			C474.7,477.6,473.9,477.3,473,477.1z"/>
		<path class="st5" d="M475.6,477.8c0.6-1.7,0.1-2.8-1.7-3.8c-0.7-0.4-1.4-0.6-2.2-0.8c0.7-0.6,2.1-0.6,3.6,0
			c0.4,0.2,0.8,0.4,1.2,0.6c0.2,0.3,0.4,0.6,0.7,0.9C478.5,476.3,477.7,477.8,475.6,477.8z"/>
		<path class="st6" d="M469.5,476.6c-1,0-1.6-0.5-2.1-1.2c-0.4-0.6-0.2-1,0.5-1.1C469.5,475.2,469.8,475.6,469.5,476.6z"/>
		<path class="st5" d="M469.5,476.6c0.3-1,0-1.4-1.6-2.3c0.9-0.2,1.7,0,2.2,0.7C470.8,475.9,470.5,476.5,469.5,476.6z"/>
	</g>
</g>
<g>
	<g>
		<path class="st0" d="M192.8,74.7c0.2-0.4,0.4-0.8,0.6-1.2c0.2,0,0.4,0,0.6,0c8.1,0.4,16.1,0.7,24.2,1.2c2.2,0.1,4.3-0.2,6.8,1.1
			c1.1,0.6,2.4,0.9,3.6,1.5c1.7,0.7,3.4,1.5,5.1,2.2c-0.2,0.1-0.5,0.3-0.7,0.4c-5.5,1.4-11,2.8-16.5,4.2c-2.4,0.6-4.7,1.3-7.1,1.9
			c-1.6-1.1-3.2-1.7-4.5-1c-0.2,0.4-0.6,0.8-0.6,1.4c0,0.7-0.3,0.9-1,1.1c-4.6,1.1-9.2,2.3-13.8,3.5c-0.4,0.1-0.8,0-1.3,0.1
			c0.2-0.6,0.3-1.1,0.5-1.7c1.1-3.6,2.2-7.1,3.3-10.7C192.3,77.2,192.5,75.9,192.8,74.7z M203.3,76.9c-1.3,1.1-1.2,2.9,0.3,4.6
			c1.6,1.8,3.9,2.9,6,2.9c2.5,0.1,3.8-0.9,3.7-2.7c-0.1-1.8-1.6-3.6-4.1-4.7C207,75.9,204.6,75.9,203.3,76.9z"/>
		<path class="st0" d="M239.6,87c0.6,1.9,1.2,3.9,1.7,5.8c0.1,0.3,0.3,0.6,0.4,0.9c-0.1,0.2-0.2,0.4-0.3,0.7
			c-0.6,0.2-1.3,0.3-1.8,0.6c-4.5,2.3-9,4.7-13.4,7c-2,1-4,2.1-5.9,3.1c-0.3,0.1-0.6,0.2-0.9,0.4c0.5-0.6,1-1.2,1.5-1.7
			c3.6-3.3,7.3-6.6,10.9-10c0.9,0.2,1.8,0.5,2.6,0.7c2.1,0,2.8-1.5,1.5-3.2c-0.2-0.3-0.4-0.6-0.7-0.9c0.5-0.4,1-0.9,1.5-1.3
			C237.8,88.4,238.7,87.7,239.6,87z"/>
		<path class="st1" d="M239.6,87c-0.9,0.7-1.8,1.5-2.7,2.2c-0.5,0.4-1,0.8-1.5,1.3c-0.4-0.2-0.8-0.4-1.2-0.6c-1.5-0.6-2.8-0.6-3.6,0
			c-1.3,1-0.9,2.2,1.3,4c-3.7,3.3-7.3,6.6-10.9,10c-0.6,0.5-1,1.1-1.5,1.7c-0.5,0.2-1,0.8-1.4,0.7c-1-0.4-2-1.1-3-1.6
			c0.9-2.9-0.4-6-4.1-9c-3.5-2.8-7.3-3.9-11.1-3.5c-2,0.2-3.6,0.8-4.1,2.3c-0.2,0.3-0.6,0.4-1.2,0.1c-1.9-0.9-3.8-1.8-5.8-2.8
			c-0.2-0.1-0.3-0.4-0.4-0.7c0.4,0,0.9,0,1.3-0.1c4.6-1.1,9.2-2.3,13.8-3.5c0.7-0.2,1-0.4,1-1.1c0-0.5,0.4-0.9,0.6-1.4
			c1.6,0.6,3.1,1.3,3.6,2.7c0.2,0.5,0.1,0.9,0.2,1.6c0.5-0.3,0.9-0.4,1.2-0.6c0.7-0.7,0.4-1.7-0.4-2.8c2.4-0.6,4.7-1.3,7.1-1.9
			c5.5-1.4,11-2.8,16.5-4.2c0.3-0.1,0.5-0.2,0.7-0.4c0.3,0.2,0.7,0.4,0.8,0.7c1.6,2,3.2,4.1,4.8,6.1C239.5,86.5,239.5,86.7,239.6,87
			z M228.3,93.3c1-0.1,1.3-0.7,0.7-1.5c-0.6-0.7-1.4-1-2.2-0.7c-0.7,0.1-0.9,0.4-0.5,1.1C226.7,92.9,227.4,93.3,228.3,93.3z"/>
		<path class="st1" d="M209.6,84.4c-2.1,0-4.4-1.1-6-2.9c-1.5-1.7-1.6-3.5-0.3-4.6c0.3,0.1,0.5,0.2,0.8,0.2c2.3,0.4,4.1,1.6,5.4,3.3
			C210.7,82.1,210.4,83.3,209.6,84.4z"/>
		<path class="st2" d="M209.6,84.4c0.8-1.1,1.1-2.3-0.1-4c-1.3-1.7-3.1-2.9-5.4-3.3c-0.3,0-0.5-0.1-0.8-0.2c1.4-1,3.7-1,6,0.1
			c2.4,1.2,4,3,4.1,4.7C213.4,83.5,212.1,84.5,209.6,84.4z"/>
		<path class="st2" d="M209.3,85.9c0.8,1.1,1.1,2,0.4,2.8c-0.2,0.2-0.7,0.4-1.2,0.6c-0.1-0.7,0-1.2-0.2-1.6c-0.5-1.4-2-2.1-3.6-2.7
			C206.2,84.2,207.7,84.8,209.3,85.9z"/>
		<path class="st3" d="M195.6,94.3c0.6-1.5,2.2-2.1,4.1-2.3c3.8-0.4,7.6,0.7,11.1,3.5c3.8,3,5.1,6,4.1,9c-0.6-1.9-1.5-3.8-3.3-5.6
			c-4.1-4-10.6-6.1-15.1-4.8C196.2,94.1,195.9,94.2,195.6,94.3z"/>
		<path class="st4" d="M231.8,93.8c-2.2-1.7-2.5-3-1.3-4c0.7,0.3,1.5,0.5,2.2,0.8c1.8,1,2.3,2.2,1.7,3.8
			C233.6,94.3,232.7,94,231.8,93.8z"/>
		<path class="st5" d="M234.5,94.5c0.6-1.7,0.1-2.8-1.7-3.8c-0.7-0.4-1.4-0.6-2.2-0.8c0.7-0.6,2.1-0.6,3.6,0
			c0.4,0.2,0.8,0.4,1.2,0.6c0.2,0.3,0.4,0.6,0.7,0.9C237.3,93,236.6,94.5,234.5,94.5z"/>
		<path class="st6" d="M228.3,93.3c-1,0-1.6-0.5-2.1-1.2c-0.4-0.6-0.2-1,0.5-1.1C228.4,91.9,228.7,92.4,228.3,93.3z"/>
		<path class="st5" d="M228.3,93.3c0.3-1,0-1.4-1.6-2.3c0.9-0.2,1.7,0,2.2,0.7C229.7,92.6,229.4,93.2,228.3,93.3z"/>
	</g>
</g>
<g>
	<g>
		<path class="st0" d="M436,324.9c0.4,1,0.9,2.1,1.3,3.1c-0.1,0.3-0.2,0.6-0.3,0.9c-5,11.1-9.9,22.2-14.9,33.2c-1.4,3-2.1,6.7-5.3,8
			c-1.4,0.6-2.6,1.7-4,2.5c-1.9,1.1-3.9,2.2-5.9,3.3c0-0.6-0.1-1.2-0.1-1.8c1.1-10.7,2.2-21.4,3.3-32.1c0.5-4.6,0.9-9.3,1.3-13.9
			c2.3-0.4,4-1.6,3.8-4.9c-0.5-1.2-0.8-2.5-1.5-3.4c-0.9-1.2-1.1-2.1-1-3.4c1-8.9,1.9-17.8,2.8-26.7c0.1-0.7,0.4-1.3,0.6-2
			c0.7,1.3,1.4,2.6,2.1,3.9c4.3,8.3,8.6,16.5,12.9,24.8C432.7,319.2,434.4,322.1,436,324.9z M427.1,335.9c-0.8-4-3.4-7.2-6.5-8.2
			c-3.3-1-6.1,0.3-7.3,3.4c-1.5,3.6-0.9,7.2,1.6,10.4c2.5,3.1,5.8,4.3,8.8,2.9C426.5,343.3,427.8,339.9,427.1,335.9z"/>
		<path class="st0" d="M393.3,370.4c-3-2.8-6-5.5-8.9-8.3c-0.5-0.4-1-0.7-1.5-1.1c-0.2-0.6-0.5-1.1-0.7-1.7c0.1-1.2,0.3-2.4,0.2-3.7
			c-0.7-10.9-1.5-21.9-2.3-32.8c-0.3-4.8-0.7-9.7-1.1-14.6c0-0.7,0-1.4,0-2.1c0.5,1.8,1.1,3.6,1.5,5.4c2.6,11.5,5.2,23.1,7.7,34.6
			c-0.8,0.8-1.6,1.7-2.4,2.5c-1.2,3.1,0.5,7,3.5,8.1c0.5,0.2,1.1,0.5,1.6,0.7c0.3,1.5,0.6,3.1,0.9,4.6
			C392.3,365,392.8,367.7,393.3,370.4z"/>
		<path class="st1" d="M393.3,370.4c-0.5-2.7-1-5.4-1.5-8.1c-0.3-1.5-0.6-3.1-0.9-4.6c0.5-0.2,1-0.4,1.4-0.7c1.7-1,2.4-2.9,2-5.2
			c-0.6-3.7-2.6-5.4-6.1-5.6c-2.6-11.5-5.1-23.1-7.7-34.6c-0.4-1.8-1-3.6-1.5-5.4c-0.1-1.2-0.6-3-0.1-3.3c1.1-0.8,2.6-0.9,3.9-1.3
			c3.5,6.9,8.5,10.6,14.6,10.7c5.8,0.1,9.4-3.5,10.9-9.8c0.8-3.3,0.8-6.8-0.9-10.4c-0.4-1-0.2-1.5,0.5-1.9c2.4-1,4.7-2.2,7-3.2
			c0.3-0.1,0.8,0.4,1.2,0.6c-0.2,0.7-0.5,1.3-0.6,2c-1,8.9-1.9,17.8-2.8,26.7c-0.1,1.3,0,2.3,1,3.4c0.7,0.9,1,2.3,1.5,3.4
			c-1.7,1.3-3.5,2.1-5.7,0.2c-0.7-0.6-1.4-1.6-2.4-2.8c0.1,1.2,0,2.1,0.2,2.9c0.6,2.4,2.2,3.7,4.1,4.6c-0.4,4.6-0.8,9.3-1.3,13.9
			c-1.1,10.7-2.2,21.4-3.3,32.1c-0.1,0.6,0.1,1.2,0.1,1.8c-0.5,0-0.9,0.2-1.4,0c-3.7-1.4-7.4-2.9-11.1-4.4
			C394.1,371.2,393.7,370.7,393.3,370.4z M390.7,342c-0.4,1.8,0.3,3.3,1.7,3.8c1.3,0.5,2.1-0.2,2.3-1.9c0.3-1.2-0.1-2.2-1.2-2.8
			C392.3,340.5,391.3,340.6,390.7,342z"/>
		<path class="st1" d="M413.4,331.2c1.2-3.1,4-4.4,7.3-3.4c3.2,0.9,5.8,4.2,6.5,8.2c-0.2,0.3-0.5,0.5-0.7,0.8
			c-1.9,2.6-4.4,3.1-7.5,1.7C416,337.2,414.4,334.4,413.4,331.2z"/>
		<path class="st2" d="M413.4,331.2c1.1,3.2,2.6,6,5.6,7.3c3.1,1.3,5.6,0.9,7.5-1.7c0.2-0.3,0.5-0.5,0.7-0.8c0.7,4-0.7,7.4-3.4,8.6
			c-3,1.3-6.3,0.2-8.8-2.9C412.5,338.4,411.9,334.8,413.4,331.2z"/>
		<path class="st2" d="M411.4,328.1c-1.9-0.8-3.4-2.1-4.1-4.6c-0.2-0.8-0.1-1.7-0.2-2.9c1,1.2,1.6,2.1,2.4,2.8
			c2.2,1.9,4,1.1,5.7-0.2C415.5,326.5,413.8,327.7,411.4,328.1z"/>
		<path class="st3" d="M407.4,292.2c1.7,3.6,1.7,7.1,0.9,10.4c-1.5,6.3-5.1,9.8-10.9,9.8c-6.2-0.1-11.1-3.8-14.6-10.7
			c2.9,2.7,6,4.9,9.5,5.6c7.8,1.5,14.3-4.1,14.9-13.1C407.3,293.4,407.4,292.8,407.4,292.2z"/>
		<path class="st4" d="M388.2,346.3c3.6,0.1,5.5,1.8,6.1,5.6c-0.8,0.5-1.5,1.3-2.4,1.6c-2.4,0.8-4.3-0.7-6.2-4.6
			C386.6,348,387.4,347.1,388.2,346.3z"/>
		<path class="st5" d="M385.7,348.8c2,3.9,3.8,5.4,6.2,4.6c0.9-0.3,1.6-1,2.4-1.6c0.4,2.2-0.3,4.1-2,5.2c-0.5,0.3-1,0.4-1.4,0.7
			c-0.5-0.2-1.1-0.5-1.6-0.7C386.2,355.8,384.5,351.9,385.7,348.8z"/>
		<path class="st6" d="M390.7,342c0.5-1.4,1.5-1.5,2.8-0.8c1.1,0.6,1.5,1.6,1.2,2.8C392.7,344.7,391.9,344.3,390.7,342z"/>
		<path class="st5" d="M390.7,342c1.2,2.3,1.9,2.7,4,2c-0.1,1.7-1,2.4-2.3,1.9C391,345.3,390.4,343.8,390.7,342z"/>
	</g>
</g>
<g>
	<g>
		<path class="st0" d="M100.9,184.3c0.2,0.6,0.5,1.1,0.7,1.7c-0.1,0.2-0.1,0.3-0.2,0.5c-2.7,5.9-5.3,11.9-8,17.8
			c-0.7,1.6-1.1,3.6-2.8,4.3c-0.8,0.3-1.4,0.9-2.1,1.4c-1,0.6-2.1,1.2-3.2,1.8c0-0.3-0.1-0.6,0-0.9c0.6-5.7,1.2-11.5,1.8-17.2
			c0.3-2.5,0.5-5,0.7-7.5c1.3-0.2,2.2-0.8,2.1-2.6c-0.3-0.6-0.4-1.3-0.8-1.8c-0.5-0.6-0.6-1.2-0.5-1.9c0.5-4.8,1-9.6,1.5-14.3
			c0-0.4,0.2-0.7,0.3-1.1c0.4,0.7,0.8,1.4,1.1,2.1c2.3,4.4,4.6,8.9,6.9,13.3C99.1,181.3,100,182.8,100.9,184.3z M96.2,190.3
			c-0.4-2.1-1.8-3.9-3.5-4.4c-1.8-0.5-3.3,0.2-3.9,1.8c-0.8,1.9-0.5,3.9,0.9,5.6c1.3,1.7,3.1,2.3,4.7,1.6
			C95.8,194.2,96.5,192.4,96.2,190.3z"/>
		<path class="st0" d="M78,208.8c-1.6-1.5-3.2-3-4.8-4.4c-0.2-0.2-0.5-0.4-0.8-0.6c-0.1-0.3-0.3-0.6-0.4-0.9c0-0.7,0.1-1.3,0.1-2
			c-0.4-5.9-0.8-11.8-1.2-17.6c-0.2-2.6-0.4-5.2-0.6-7.8c0-0.4,0-0.7,0-1.1c0.3,1,0.6,1.9,0.8,2.9c1.4,6.2,2.8,12.4,4.1,18.6
			c-0.4,0.5-0.9,0.9-1.3,1.4c-0.6,1.6,0.3,3.7,1.9,4.4c0.3,0.1,0.6,0.3,0.9,0.4c0.2,0.8,0.3,1.7,0.5,2.5
			C77.4,205.9,77.7,207.3,78,208.8z"/>
		<path class="st1" d="M78,208.8c-0.3-1.5-0.5-2.9-0.8-4.4c-0.2-0.8-0.3-1.7-0.5-2.5c0.3-0.1,0.5-0.2,0.8-0.3
			c0.9-0.5,1.3-1.6,1.1-2.8c-0.3-2-1.4-2.9-3.3-3c-1.4-6.2-2.8-12.4-4.1-18.6c-0.2-1-0.5-1.9-0.8-2.9c0-0.6-0.3-1.6-0.1-1.8
			c0.6-0.4,1.4-0.5,2.1-0.7c1.9,3.7,4.6,5.7,7.9,5.8c3.1,0,5-1.9,5.9-5.2c0.4-1.8,0.4-3.6-0.5-5.6c-0.2-0.5-0.1-0.8,0.3-1
			c1.3-0.6,2.5-1.2,3.8-1.7c0.1-0.1,0.4,0.2,0.6,0.3c-0.1,0.4-0.3,0.7-0.3,1.1c-0.5,4.8-1,9.6-1.5,14.3c-0.1,0.7,0,1.2,0.5,1.9
			c0.4,0.5,0.6,1.2,0.8,1.8c-0.9,0.7-1.9,1.1-3.1,0.1c-0.4-0.3-0.7-0.8-1.3-1.5c0,0.7,0,1.1,0.1,1.6c0.3,1.3,1.2,2,2.2,2.4
			c-0.2,2.5-0.4,5-0.7,7.5c-0.6,5.7-1.2,11.5-1.8,17.2c0,0.3,0,0.6,0,0.9c-0.2,0-0.5,0.1-0.7,0c-2-0.8-4-1.6-5.9-2.4
			C78.4,209.2,78.2,208.9,78,208.8z M76.6,193.5c-0.2,1,0.2,1.8,0.9,2.1c0.7,0.3,1.1-0.1,1.2-1c0.1-0.7,0-1.2-0.6-1.5
			C77.4,192.7,76.9,192.8,76.6,193.5z"/>
		<path class="st1" d="M88.7,187.7c0.6-1.7,2.1-2.4,3.9-1.8c1.7,0.5,3.1,2.3,3.5,4.4c-0.1,0.1-0.3,0.3-0.4,0.4c-1,1.4-2.4,1.7-4,0.9
			C90.1,190.9,89.3,189.5,88.7,187.7z"/>
		<path class="st2" d="M88.7,187.7c0.6,1.7,1.4,3.2,3,3.9c1.7,0.7,3,0.5,4-0.9c0.1-0.2,0.2-0.3,0.4-0.4c0.4,2.1-0.4,4-1.8,4.6
			c-1.6,0.7-3.4,0.1-4.7-1.6C88.3,191.6,88,189.6,88.7,187.7z"/>
		<path class="st2" d="M87.7,186c-1-0.4-1.8-1.2-2.2-2.4c-0.1-0.4-0.1-0.9-0.1-1.6c0.5,0.6,0.9,1.1,1.3,1.5c1.2,1,2.2,0.6,3.1-0.1
			C89.9,185.2,89,185.8,87.7,186z"/>
		<path class="st3" d="M85.6,166.8c0.9,1.9,0.9,3.8,0.5,5.6c-0.8,3.4-2.8,5.3-5.9,5.2c-3.3,0-6-2.1-7.9-5.8c1.6,1.5,3.2,2.6,5.1,3
			c4.2,0.8,7.7-2.2,8-7.1C85.5,167.4,85.5,167.1,85.6,166.8z"/>
		<path class="st4" d="M75.2,195.8c1.9,0.1,3,1,3.3,3c-0.4,0.3-0.8,0.7-1.3,0.9c-1.3,0.4-2.3-0.4-3.3-2.5
			C74.3,196.7,74.8,196.3,75.2,195.8z"/>
		<path class="st5" d="M73.9,197.2c1.1,2.1,2,2.9,3.3,2.5c0.5-0.1,0.8-0.6,1.3-0.9c0.2,1.2-0.2,2.2-1.1,2.8
			c-0.2,0.1-0.5,0.2-0.8,0.3c-0.3-0.1-0.6-0.3-0.9-0.4C74.2,200.9,73.3,198.8,73.9,197.2z"/>
		<path class="st6" d="M76.6,193.5c0.3-0.7,0.8-0.8,1.5-0.5c0.6,0.3,0.8,0.9,0.6,1.5C77.6,195,77.2,194.8,76.6,193.5z"/>
		<path class="st5" d="M76.6,193.5c0.6,1.2,1,1.4,2.1,1.1c-0.1,0.9-0.5,1.3-1.2,1C76.8,195.3,76.4,194.5,76.6,193.5z"/>
	</g>
</g>
</svg>
