<?xml version="1.0" encoding="utf-8"?>
<!-- Generator: Adobe Illustrator 26.0.1, SVG Export Plug-In . SVG Version: 6.00 Build 0)  -->
<svg version="1.1" id="Capa_1" xmlns="http://www.w3.org/2000/svg" xmlns:xlink="http://www.w3.org/1999/xlink" x="0px" y="0px"
	 viewBox="0 0 230.1 231" style="enable-background:new 0 0 230.1 231;" xml:space="preserve">
<style type="text/css">
	.st0{fill:#E6E6E6;}
	.st1{fill:#F99653;}
	.st2{fill:#FC7B1D;}
	.st3{fill:#F4CC4D;}
	.st4{fill:#F5C300;}
	.st5{fill:#F9EECF;}
	.st6{fill:#F4DC90;}
	.st7{fill:#BA530D;}
	.st8{fill:#D76510;}
	.st9{opacity:0.24;fill:#A45302;enable-background:new    ;}
	.st10{opacity:0.38;fill:#F9B548;enable-background:new    ;}
	.st11{fill:#D6D6D6;}
	.st12{fill:#F15A24;}
	.st13{filter:url(#a);}
	.st14{mask:url(#b_00000105397497860687090810000015989674563587641991_);filter:url(#m);}
	.st15{fill:url(#SVGID_1_);}
	.st16{opacity:0.1;fill:url(#SVGID_00000134213077836959997890000002207294367075399834_);enable-background:new    ;}
	.st17{fill:#D2650A;}
	.st18{filter:url(#d);}
	.st19{mask:url(#e_00000049202863611533366420000017593095307160773505_);filter:url(#p);}
	.st20{fill:url(#SVGID_00000156562841395745078430000008529305465547313071_);}
	.st21{opacity:0.41;fill:url(#SVGID_00000034803181315054995730000007222478089641542558_);enable-background:new    ;}
	.st22{filter:url(#g);}
	.st23{mask:url(#h_00000157279631868202503740000003252711136690237847_);filter:url(#s);}
	.st24{fill:url(#SVGID_00000020391188065671581650000003117800673822552721_);}
	.st25{opacity:0.22;fill:url(#SVGID_00000150807506067007471840000008565396833507188894_);enable-background:new    ;}
	.st26{filter:url(#j);}
	.st27{mask:url(#k_00000132049701191636831230000004312044837273060503_);filter:url(#v);}
	.st28{fill:url(#SVGID_00000077291708834653248920000014666353812241700542_);}
	.st29{opacity:0.48;fill:url(#SVGID_00000078003302294375039630000015244947712008911257_);enable-background:new    ;}
	.st30{fill:#4F0B11;}
	.st31{fill:#680F15;}
	.st32{fill:#039385;}
	.st33{fill:#06C6AF;}
</style>
<filter  color-interpolation-filters="sRGB" filterUnits="userSpaceOnUse" height="145.02" id="v" width="31.52" x="16.7" y=".7">
	<feFlood  flood-color="#fff" result="bg"></feFlood>
	<feBlend  in="SourceGraphic" in2="bg" mode="normal"></feBlend>
</filter>
<filter  color-interpolation-filters="sRGB" filterUnits="userSpaceOnUse" height="46.48" id="s" width="35.85" x="43.79" y="42.39">
	<feFlood  flood-color="#fff" result="bg"></feFlood>
	<feBlend  in="SourceGraphic" in2="bg" mode="normal"></feBlend>
</filter>
<filter  color-interpolation-filters="sRGB" filterUnits="userSpaceOnUse" height="146.04" id="p" width="31.6" x="48.37" y="0">
	<feFlood  flood-color="#fff" result="bg"></feFlood>
	<feBlend  in="SourceGraphic" in2="bg" mode="normal"></feBlend>
</filter>
<filter  color-interpolation-filters="sRGB" filterUnits="userSpaceOnUse" height="48.84" id="m" width="41.66" x="42.43" y="105.42">
	<feFlood  flood-color="#fff" result="bg"></feFlood>
	<feBlend  in="SourceGraphic" in2="bg" mode="normal"></feBlend>
</filter>
<filter  color-interpolation-filters="sRGB" filterUnits="userSpaceOnUse" height="32766" id="j" width="31.52" x="16.7" y="-8280.82">
	<feFlood  flood-color="#fff" result="bg"></feFlood>
	<feBlend  in="SourceGraphic" in2="bg" mode="normal"></feBlend>
</filter>
<filter  color-interpolation-filters="sRGB" filterUnits="userSpaceOnUse" height="32766" id="g" width="35.85" x="43.79" y="-8280.82">
	<feFlood  flood-color="#fff" result="bg"></feFlood>
	<feBlend  in="SourceGraphic" in2="bg" mode="normal"></feBlend>
</filter>
<filter  color-interpolation-filters="sRGB" filterUnits="userSpaceOnUse" height="32766" id="d" width="31.6" x="48.37" y="-8280.82">
	<feFlood  flood-color="#fff" result="bg"></feFlood>
	<feBlend  in="SourceGraphic" in2="bg" mode="normal"></feBlend>
</filter>
<filter  color-interpolation-filters="sRGB" filterUnits="userSpaceOnUse" height="32766" id="a" width="41.66" x="42.43" y="-8280.82">
	<feFlood  flood-color="#fff" result="bg"></feFlood>
	<feBlend  in="SourceGraphic" in2="bg" mode="normal"></feBlend>
</filter>
<g>
	<path class="st0" d="M230.6,115.4h-146V63.1c11.5-9,26.4-15.4,45.6-15.2c23.9,0.2,47.5,10.5,69.4,30.3c5.4,4.8,10.6,10.2,15.7,16.2
		C220.6,100.5,225.7,107.5,230.6,115.4z"/>
	<path class="st1" d="M81.9,77.7C58.1,56.9,31,64.3,10.5,97.2l-10.9,17.6l83,2.7L81.9,77.7z"/>
	<path class="st2" d="M81.9,151.2C58.1,172,31,164.6,10.5,131.7l-10.9-17.6l83-2.7L81.9,151.2z"/>
	<path class="st3" d="M81.4,87c-17.8-15.6-38.1-10.1-53.4,14.6l-8.2,13l62.1,2L81.4,87z"/>
	<path class="st4" d="M81.4,142c-17.8,15.6-38.1,10-53.4-14.6l-8.2-13.2l62.1-2L81.4,142z"/>
	<path class="st5" d="M78.6,97.6c-10.8-9.5-23.3-6.1-32.6,8.9l-5,8l37.9,1.2L78.6,97.6z"/>
	<path class="st6" d="M78.6,131.2c-10.8,9.5-23.3,6.1-32.6-8.9l-5-8l37.9-1.2L78.6,131.2z"/>
	<path class="st7" d="M81.2,168.7v-107l4.7,1.3v104.4L81.2,168.7z"/>
	<path class="st2" d="M125.8,47.9c0,0-10.9-29.6-16.2-33.5C99.2,6.9,66.2,24.8,66.2,24.8l18.4,38.3L125.8,47.9L125.8,47.9z"/>
	<path class="st8" d="M125.8,183c0,0-10.9,29.6-16.2,33.6c-10.3,7.5-43.4-10.4-43.4-10.4l18.4-38.4L125.8,183L125.8,183z"/>
	<path class="st9" d="M122.2,190.3c0,0-17,4.1-40.8-15.9l3.2-7l41.2,15.6L122.2,190.3z"/>
	<path class="st10" d="M125.8,48.1c0,0-13.8-20.3-22.2-23.9c-23-9.9-37.4,0.9-37.4,0.9s33.1-17.9,43.4-10.4
		C114.9,18.5,125.8,48.1,125.8,48.1z"/>
	<path class="st11" d="M130.2,182.9c-19.2,0.2-34.1-6.4-45.6-15.2v-52.3h146c0,0.1-0.1,0.1-0.1,0.2c-4.8,7.8-10,14.8-15.3,21
		c-3.4,4-7.4,8.4-11.9,12.8l-0.2,0.2c-1.1,1.1-2.3,2.1-3.5,3.2c-4,3.6-8.3,7.1-13,10.5c-0.2,0.2-0.5,0.3-0.6,0.4
		c-0.2,0.1-0.6,0.4-0.8,0.6c-0.1,0-0.2,0.1-0.2,0.2l-1.3,0.9l-2,1.3c-7.8,5-15.7,8.9-23.8,11.6c-0.5,0.2-1,0.4-1.6,0.5
		c-0.6,0.1-1.1,0.4-1.7,0.5C146.4,181.6,138.3,182.8,130.2,182.9L130.2,182.9z"/>
	<path class="st12" d="M199.5,152.7c2.3-11.8,3.4-24.5,3.3-37.3c-0.1-12.7-1.2-25.3-3.2-37.2c5.4,4.8,10.6,10.2,15.7,16.2
		c1.4,6.6,2.2,13.7,2.1,20.9c-0.1,7.3-0.8,14.6-2.3,21.3C210,142.5,204.8,147.9,199.5,152.7z"/>
	<defs>
		<filter id="Adobe_OpacityMaskFilter" filterUnits="userSpaceOnUse" x="84.6" y="114" width="40.6" height="65.9">
			<feColorMatrix  type="matrix" values="1 0 0 0 0  0 1 0 0 0  0 0 1 0 0  0 0 0 1 0"/>
		</filter>
	</defs>
	
		<mask maskUnits="userSpaceOnUse" x="84.6" y="114" width="40.6" height="65.9" id="n_00000037682584739838366110000004214855887173652896_">
		<defs>
			
				<filter id="Adobe_OpacityMaskFilter_00000100350283971811174020000012471199031224993414_" filterUnits="userSpaceOnUse" x="76.3" y="102.7" width="48.8" height="88.5">
				<feColorMatrix  type="matrix" values="1 0 0 0 0  0 1 0 0 0  0 0 1 0 0  0 0 0 1 0"/>
			</filter>
		</defs>
		
			<mask maskUnits="userSpaceOnUse" x="76.3" y="102.7" width="48.8" height="88.5" id="b_00000105397497860687090810000015989674563587641991_" style="filter:url(#Adobe_OpacityMaskFilter);">
			<g class="st13">
			</g>
		</mask>
		<g class="st14">
			
				<linearGradient id="SVGID_1_" gradientUnits="userSpaceOnUse" x1="182.5068" y1="77.3187" x2="114.2786" y2="124.8302" gradientTransform="matrix(6.123234e-17 1 1 -6.123234e-17 -1.3598 0.47)">
				<stop  offset="0" style="stop-color:#000000"/>
				<stop  offset="0.22" style="stop-color:#393939"/>
				<stop  offset="0.76" style="stop-color:#C6C6C6"/>
				<stop  offset="1" style="stop-color:#FFFFFF"/>
			</linearGradient>
			<path class="st15" d="M98.1,102.7L76.3,177c0,0,25.2,15,27.4,14.3c4.7-1.6,21.5-77.1,21.5-77.1L98.1,102.7z"/>
		</g>
	</mask>
	<g>
		
			<linearGradient id="SVGID_00000120552048829729810870000001405068256721296522_" gradientUnits="userSpaceOnUse" x1="170.9109" y1="83.5578" x2="113.208" y2="123.7416" gradientTransform="matrix(6.123234e-17 1 1 -6.123234e-17 -1.3598 0.47)">
			<stop  offset="0" style="stop-color:#FFFFFF"/>
			<stop  offset="0.22" style="stop-color:#D4C9C6"/>
			<stop  offset="0.76" style="stop-color:#6A4539"/>
			<stop  offset="1" style="stop-color:#3F1000"/>
		</linearGradient>
		<path style="opacity:0.1;fill:url(#SVGID_00000120552048829729810870000001405068256721296522_);enable-background:new    ;" d="
			M90.5,114.4l-5.9,53.3c0,0,20.9,12.9,23.1,12.2l17.5-65.9L90.5,114.4z"/>
	</g>
	<path class="st2" d="M125.8,114.6c0,0-9.2-10-12.6-10.9c-12-3.1-47,10.9-47,10.9H125.8z"/>
	<path class="st17" d="M125.8,114.4c0,0-9.2,10-12.6,10.8c-12,3.1-47-10.9-47-10.9L125.8,114.4z"/>
	<defs>
		
			<filter id="Adobe_OpacityMaskFilter_00000044144843747940176860000011700128746644637314_" filterUnits="userSpaceOnUse" x="84.5" y="115.4" width="146.1" height="67.2">
			<feColorMatrix  type="matrix" values="1 0 0 0 0  0 1 0 0 0  0 0 1 0 0  0 0 0 1 0"/>
		</filter>
	</defs>
	
		<mask maskUnits="userSpaceOnUse" x="84.5" y="115.4" width="146.1" height="67.2" id="q_00000161598058628464713820000003641181345798025902_">
		<defs>
			
				<filter id="Adobe_OpacityMaskFilter_00000168077804986636466400000010822480606206286261_" filterUnits="userSpaceOnUse" x="84.5" y="115.4" width="146.1" height="67.2">
				<feColorMatrix  type="matrix" values="1 0 0 0 0  0 1 0 0 0  0 0 1 0 0  0 0 0 1 0"/>
			</filter>
		</defs>
		
			<mask maskUnits="userSpaceOnUse" x="84.5" y="115.4" width="146.1" height="67.2" id="e_00000049202863611533366420000017593095307160773505_" style="filter:url(#Adobe_OpacityMaskFilter_00000044144843747940176860000011700128746644637314_);">
			<g class="st18">
			</g>
		</mask>
		<g class="st19">
			
				<linearGradient id="SVGID_00000037650357777490315250000008454493257242961841_" gradientUnits="userSpaceOnUse" x1="148.483" y1="85.8543" x2="148.483" y2="231.9143" gradientTransform="matrix(6.123234e-17 1 1 -6.123234e-17 -1.3598 0.47)">
				<stop  offset="0" style="stop-color:#000000"/>
				<stop  offset="0.22" style="stop-color:#393939"/>
				<stop  offset="0.76" style="stop-color:#C6C6C6"/>
				<stop  offset="1" style="stop-color:#FFFFFF"/>
			</linearGradient>
			<path style="fill:url(#SVGID_00000037650357777490315250000008454493257242961841_);" d="M84.6,167.4L84.6,167.4v-2l0.3-9.4
				c0,0,35.5,18.4,65.1,14.7c31-3.9,79.8-54.6,80.6-55.4c0,0.1-0.1,0.1-0.1,0.2c-4.8,7.8-10,14.8-15.3,21c-3.5,4-7.4,8.4-11.9,12.8
				l-0.2,0.2c-7.8,7.3-14.6,12.3-17.1,14.1c-0.3,0.3-0.6,0.4-0.8,0.6c-0.1,0-0.2,0.1-0.2,0.2h-0.1l-1.2,0.8l-2,1.3
				c-0.9,0.6-1.8,1.2-2.8,1.7c-6.9,4.2-13.9,7.5-21,9.9c-0.5,0.2-1,0.4-1.6,0.5s-1.1,0.4-1.7,0.5C114.3,190.9,86,168.5,84.6,167.4z"
				/>
		</g>
	</mask>
	<g>
		
			<linearGradient id="SVGID_00000094619886722172050620000012098253237810859179_" gradientUnits="userSpaceOnUse" x1="148.483" y1="85.8543" x2="148.483" y2="231.9143" gradientTransform="matrix(6.123234e-17 1 1 -6.123234e-17 -1.3598 0.47)">
			<stop  offset="0" style="stop-color:#FFFFFF"/>
			<stop  offset="1" style="stop-color:#FFFFFF"/>
		</linearGradient>
		<path style="opacity:0.41;fill:url(#SVGID_00000094619886722172050620000012098253237810859179_);enable-background:new    ;" d="
			M84.6,167.4L84.6,167.4v-2l0.3-9.4c0,0,35.5,18.4,65.1,14.7c31-3.9,79.8-54.6,80.6-55.4c0,0.1-0.1,0.1-0.1,0.2
			c-4.8,7.8-10,14.8-15.3,21c-3.5,4-7.4,8.4-11.9,12.8l-0.2,0.2c-7.8,7.3-14.6,12.3-17.1,14.1c-0.3,0.3-0.6,0.4-0.8,0.6
			c-0.1,0-0.2,0.1-0.2,0.2h-0.1l-1.2,0.8l-2,1.3c-0.9,0.6-1.8,1.2-2.8,1.7c-6.9,4.2-13.9,7.5-21,9.9c-0.5,0.2-1,0.4-1.6,0.5
			s-1.1,0.4-1.7,0.5C114.3,190.9,86,168.5,84.6,167.4z"/>
	</g>
	<defs>
		
			<filter id="Adobe_OpacityMaskFilter_00000116226689849206471860000009259252800067633821_" filterUnits="userSpaceOnUse" x="141.7" y="105.6" width="46.4" height="76.2">
			<feColorMatrix  type="matrix" values="1 0 0 0 0  0 1 0 0 0  0 0 1 0 0  0 0 0 1 0"/>
		</filter>
	</defs>
	
		<mask maskUnits="userSpaceOnUse" x="141.7" y="105.6" width="46.4" height="76.2" id="t_00000181071062839718074890000003175244837353678995_">
		<defs>
			
				<filter id="Adobe_OpacityMaskFilter_00000176738832244136203280000015186106547049444484_" filterUnits="userSpaceOnUse" x="141.7" y="105.6" width="46.4" height="76.2">
				<feColorMatrix  type="matrix" values="1 0 0 0 0  0 1 0 0 0  0 0 1 0 0  0 0 0 1 0"/>
			</filter>
		</defs>
		
			<mask maskUnits="userSpaceOnUse" x="141.7" y="105.6" width="46.4" height="76.2" id="h_00000157279631868202503740000003252711136690237847_" style="filter:url(#Adobe_OpacityMaskFilter_00000116226689849206471860000009259252800067633821_);">
			<g class="st22">
			</g>
		</mask>
		<g class="st23">
			
				<linearGradient id="SVGID_00000152957054248645023050000002894312737030822062_" gradientUnits="userSpaceOnUse" x1="184.9102" y1="139.4118" x2="118.9167" y2="185.3685" gradientTransform="matrix(6.123234e-17 1 1 -6.123234e-17 -1.3598 0.47)">
				<stop  offset="0" style="stop-color:#000000"/>
				<stop  offset="0.22" style="stop-color:#393939"/>
				<stop  offset="0.76" style="stop-color:#C6C6C6"/>
				<stop  offset="1" style="stop-color:#FFFFFF"/>
			</linearGradient>
			<path style="fill:url(#SVGID_00000152957054248645023050000002894312737030822062_);" d="M166.7,105.6l-25,76.2
				c0,0,30.2-7.7,33.8-11.7c3.5-4,12.7-34.5,12.7-34.5L166.7,105.6z"/>
		</g>
	</mask>
	<g>
		
			<linearGradient id="SVGID_00000162322058449386090060000004378066759782081185_" gradientUnits="userSpaceOnUse" x1="184.9102" y1="139.4118" x2="118.9167" y2="185.3685" gradientTransform="matrix(6.123234e-17 1 1 -6.123234e-17 -1.3598 0.47)">
			<stop  offset="0" style="stop-color:#FFFFFF"/>
			<stop  offset="0.22" style="stop-color:#D4C9C6"/>
			<stop  offset="0.76" style="stop-color:#6A4539"/>
			<stop  offset="1" style="stop-color:#3F1000"/>
		</linearGradient>
		<path style="opacity:0.22;fill:url(#SVGID_00000162322058449386090060000004378066759782081185_);enable-background:new    ;" d="
			M166.7,105.6l-25,76.2c0,0,30.2-7.7,33.8-11.7c3.5-4,12.7-34.5,12.7-34.5L166.7,105.6z"/>
	</g>
	<defs>
		
			<filter id="Adobe_OpacityMaskFilter_00000083783209655409544740000007132198713344956294_" filterUnits="userSpaceOnUse" x="84.8" y="48.1" width="145" height="67">
			<feColorMatrix  type="matrix" values="1 0 0 0 0  0 1 0 0 0  0 0 1 0 0  0 0 0 1 0"/>
		</filter>
	</defs>
	
		<mask maskUnits="userSpaceOnUse" x="84.8" y="48.1" width="145" height="67" id="w_00000114068157675484350330000001714335765667665044_">
		<defs>
			
				<filter id="Adobe_OpacityMaskFilter_00000160165258897233455500000003509071556896604844_" filterUnits="userSpaceOnUse" x="84.8" y="48.1" width="145" height="67">
				<feColorMatrix  type="matrix" values="1 0 0 0 0  0 1 0 0 0  0 0 1 0 0  0 0 0 1 0"/>
			</filter>
		</defs>
		
			<mask maskUnits="userSpaceOnUse" x="84.8" y="48.1" width="145" height="67" id="k_00000132049701191636831230000004312044837273060503_" style="filter:url(#Adobe_OpacityMaskFilter_00000083783209655409544740000007132198713344956294_);">
			<g class="st26">
			</g>
		</mask>
		<g class="st27">
			
				<linearGradient id="SVGID_00000121987059832719747490000011453329640713455507_" gradientUnits="userSpaceOnUse" x1="81.0901" y1="86.1943" x2="81.0901" y2="231.2143" gradientTransform="matrix(6.123234e-17 1 1 -6.123234e-17 -1.3598 0.47)">
				<stop  offset="0" style="stop-color:#000000"/>
				<stop  offset="0.22" style="stop-color:#393939"/>
				<stop  offset="0.76" style="stop-color:#C6C6C6"/>
				<stop  offset="1" style="stop-color:#FFFFFF"/>
			</linearGradient>
			<path style="fill:url(#SVGID_00000121987059832719747490000011453329640713455507_);" d="M229.9,115.1c0,0-70.4-67.1-144.6-41.9
				l-0.4-14.3c0,0,48-28.5,99,7.1C183.8,66,213.6,86.1,229.9,115.1z"/>
		</g>
	</mask>
	<g>
		
			<linearGradient id="SVGID_00000034063351728068823530000001356976008785409726_" gradientUnits="userSpaceOnUse" x1="81.0901" y1="86.1943" x2="81.0901" y2="231.2143" gradientTransform="matrix(6.123234e-17 1 1 -6.123234e-17 -1.3598 0.47)">
			<stop  offset="0" style="stop-color:#FFFFFF"/>
			<stop  offset="1" style="stop-color:#FFFFFF"/>
		</linearGradient>
		<path style="opacity:0.48;fill:url(#SVGID_00000034063351728068823530000001356976008785409726_);enable-background:new    ;" d="
			M229.9,115.1c0,0-70.4-67.1-144.6-41.9l-0.4-14.3c0,0,48-28.5,99,7.1C183.8,66,213.6,86.1,229.9,115.1z"/>
	</g>
</g>
<g>
	<circle class="st30" cx="164.4" cy="116.3" r="23.4"/>
	<circle class="st31" cx="165.4" cy="115.3" r="23.4"/>
	<path class="st32" d="M165.4,133.6c-10.2,0-18.4-8.2-18.4-18.4v0c0-1.4,0.2-2.9,0.5-4.3c2.3-9.9,12.3-16,22.2-13.7
		c9.9,2.3,16,12.3,13.7,22.2C181.4,127.8,174,133.6,165.4,133.6L165.4,133.6z"/>
	<path class="st33" d="M165.4,133.6c-10.2,0-18.4-8.2-18.4-18.4v0c0-1.4,0.2-2.9,0.5-4.3c4.1-9.3,14.9-13.5,24.3-9.4
		c8.1,3.6,12.5,12.4,10.5,21.1C179.4,129.3,172.7,133.6,165.4,133.6z"/>
</g>
</svg>
