<?xml version="1.0" encoding="utf-8"?>
<!-- Generator: Adobe Illustrator 26.0.1, SVG Export Plug-In . SVG Version: 6.00 Build 0)  -->
<svg version="1.1" id="Capa_1" xmlns="http://www.w3.org/2000/svg" xmlns:xlink="http://www.w3.org/1999/xlink" x="0px" y="0px"
	 viewBox="0 0 512 512" style="enable-background:new 0 0 512 512;" xml:space="preserve">
<style type="text/css">
	.st0{fill:#EAC355;}
	.st1{fill:#FEFEFE;}
</style>
<g>
	<path class="st0" d="M5,291.5c2.5-5.8,4.2-12.1,7.7-17.2c6.8-10,16.9-15.2,29.1-15.3c29.3-0.2,58.6-0.2,87.9,0
		c20.4,0.1,36.8,17.1,36.8,37.6c0,28.7,0,57.4,0,86.1c0,20.7-16.8,37.6-37.6,37.7c-28.5,0.1-57,0-85.4,0
		c-18.7,0-33.9-12.4-37.8-30.8c-0.1-0.5-0.5-1-0.7-1.6C5,355.9,5,323.7,5,291.5z M85.6,267.7c-14.1,0-28.1,0-42.2,0
		c-16.8,0-29.7,12.8-29.7,29.6c0,28.2,0,56.5,0,84.7c0,16.7,13,29.8,29.6,29.9c28.4,0.1,56.7,0.1,85.1,0c16.2,0,29.3-12.7,29.5-28.8
		c0.2-28.8,0.2-57.7,0-86.5c-0.1-16.5-13.1-28.8-29.7-28.8C113.9,267.6,99.8,267.7,85.6,267.7z"/>
	<path class="st0" d="M196.8,91c14.1,0,28.1,0,42.2,0c22,0,38.5,16.6,38.5,38.5c0,27.8,0,55.5,0,83.3c0,23.3-16.4,39.7-39.6,39.7
		c-27.6,0-55.3,0-82.9,0c-19.7,0-34.7-12.4-38.5-31.7c-0.3-1.8-0.4-3.6-0.4-5.4c0-29.2,0-58.4,0-87.6c0-19.4,16.3-36.4,35.7-36.8
		C166.7,90.8,181.8,91,196.8,91C196.8,91,196.8,91,196.8,91z M196.7,99.7c-14.2,0-28.3,0-42.5,0c-16.7,0-29.5,12.7-29.5,29.3
		c-0.1,28.5-0.1,56.9,0,85.4c0,16.5,13,29.4,29.6,29.5c28.3,0.1,56.7,0.1,85,0c16.3,0,29.5-12.8,29.6-29.1c0.2-28.7,0.2-57.4,0-86.1
		c-0.1-16.4-13.2-28.9-29.6-28.9C225,99.7,210.8,99.7,196.7,99.7z"/>
	<path class="st0" d="M505.9,296.9c-0.1-21.3-16.8-37.9-38.1-37.9c-28.5-0.1-56.9-0.1-85.4,0c-21.6,0-38,16.5-38,38.2
		c0,14.2,0,28.4,0,42.5c0,14.3,0,28.6,0,42.9c0.1,21.2,16.8,37.9,38,37.9c28.3,0,56.7,0,85.1,0c21.3,0,38.3-16.9,38.4-38.1
		C506,353.9,506,325.4,505.9,296.9z M497.2,382.9c-0.1,16-13.4,28.9-29.5,28.9c-28.4,0.1-56.7,0.1-85.1,0c-16.8,0-29.6-13-29.6-29.8
		c0-14,0-28.1,0-42.2c0-14.3,0-28.6,0-42.9c0-16.4,12.8-29.3,29.2-29.3c28.5,0,56.9,0,85.4,0c16.3,0,29.5,12.7,29.5,29.1
		C497.4,325.5,497.4,354.2,497.2,382.9z"/>
	<path class="st0" d="M336,339.8c0,14.4,0,28.8,0,43.3c0,20.4-16.6,37.3-37,37.4c-29,0.2-57.9,0.1-86.9,0
		c-20.4-0.1-37.4-17.1-37.5-37.5c-0.1-28.7-0.1-57.4,0-86.1c0.1-21.1,16.7-37.7,37.8-37.8c28.7-0.1,57.4-0.1,86.1,0
		c21,0.1,37.4,16.6,37.4,37.6C336,311,336,325.4,336,339.8z M327.4,339.6c0-14.3,0.1-28.6,0-42.9c-0.2-16.5-12.9-29-29.4-29
		c-28.5,0-56.9,0-85.4,0c-1.8,0-3.6,0.1-5.4,0.5c-15.1,3.2-24.1,14.8-24.1,30.9c0,27.1,0,54.3,0,81.4c0,2.9,0.3,5.8,1,8.5
		c3.1,13.5,14.8,22.8,28.7,22.8c28,0,56,0,83.9,0c18,0,30.6-12.5,30.7-30.5C327.5,367.4,327.4,353.5,327.4,339.6z"/>
	<path class="st1" d="M161.8,150c-0.4-0.7-0.8-1.1-0.9-1.5c-2-8.8-4-17.6-6-26.5c-0.9-4.1-2.3-5.5-5.6-5c-2.8,0.4-4.5,2.7-3.7,6.2
		c3.1,13.1,6.3,26.1,9.6,39.1c0.7,2.8,2.5,4.5,5.7,4.4c3.5,0,5.3-2.3,6.1-5.1c2.1-7.2,3.9-14.5,5.9-21.8c0.8-2.8,1.7-5.5,2.8-9.2
		c0.5,1.4,0.7,1.8,0.8,2.2c2.5,9.3,4.9,18.6,7.5,27.9c0.9,3.2,2.2,6.2,6.4,6c3.4-0.2,5.3-2.1,6.3-6.6c1.1-4.4,2.2-8.7,3.3-13.1
		c2-7.9,4-15.7,5.9-23.6c0.8-3.4-0.6-5.9-3.4-6.5c-3.2-0.6-4.9,0.6-5.8,4.3c-1,4.4-1.9,8.8-3,13.2c-1.2,4.9-2.4,9.8-3.8,15.4
		c-0.6-1.6-0.9-2.3-1.1-3.1c-2.3-8.4-4.6-16.7-7-25.1c-1.1-3.8-3.6-5.2-7.3-4.8c-3.4,0.4-4.5,2.8-5.2,5.6
		C166.8,131.6,164.4,140.7,161.8,150z"/>
	<path class="st0" d="M78.4,328.5c-4.8-12-9.7-24-14.5-36c-1.4-3.4-3.4-5.9-7.4-5.8c-3.8,0.2-5.8,2.7-7.2,6.1
		c-4.6,11.8-9.3,23.6-14,35.5c-0.5,1.2-1.1,2.8-0.7,3.8c0.7,1.7,1.9,3.6,3.5,4.4c2,1,4,0,5-2.2c1.1-2.4,1.8-5,3.1-7.3
		c0.6-1.1,2.1-2.3,3.2-2.4c4.8-0.3,9.6-0.3,14.4,0c1.2,0.1,2.7,1.2,3.3,2.3c1.4,2.4,1.9,5.3,3.5,7.4c1,1.3,3.5,2.3,5.1,2
		c1.6-0.3,2.8-2.4,4-3.5C79.1,330.8,78.9,329.6,78.4,328.5z M49.8,316.6c2.2-6.2,4.3-12.2,6.7-19c2.5,6.8,4.7,12.7,7,19H49.8z"/>
	<path class="st0" d="M161.8,150c2.6-9.4,5-18.4,7.5-27.5c0.8-2.7,1.8-5.2,5.2-5.6c3.7-0.4,6.2,1,7.3,4.8c2.4,8.3,4.7,16.7,7,25.1
		c0.2,0.8,0.6,1.5,1.1,3.1c1.4-5.6,2.7-10.5,3.8-15.4c1-4.4,1.9-8.8,3-13.2c0.9-3.6,2.6-4.9,5.8-4.3c2.8,0.5,4.2,3,3.4,6.5
		c-1.9,7.9-3.9,15.7-5.9,23.6c-1.1,4.4-2.2,8.7-3.3,13.1c-1.1,4.5-2.9,6.4-6.3,6.6c-4.2,0.2-5.6-2.8-6.4-6c-2.6-9.3-5-18.6-7.5-27.9
		c-0.1-0.4-0.3-0.8-0.8-2.2c-1.1,3.7-2,6.4-2.8,9.2c-2,7.3-3.8,14.6-5.9,21.8c-0.8,2.9-2.6,5.1-6.1,5.1c-3.2,0-5-1.6-5.7-4.4
		c-3.3-13-6.5-26-9.6-39.1c-0.8-3.5,0.9-5.8,3.7-6.2c3.3-0.5,4.7,0.9,5.6,5c1.9,8.8,3.9,17.7,6,26.5
		C161,148.9,161.4,149.3,161.8,150z"/>
	<path class="st0" d="M412.4,304.7c-2.1-11.2-8.9-16.8-20.3-16.9c-4.8,0-9.6,0-14.4,0c-4.4,0-5.8,1.4-5.8,5.8c-0.1,6,0,12,0,18h0
		c0,5.9-0.1,11.8,0,17.7c0.1,5,1.5,6.5,6.4,6.6c4.4,0.1,8.9,0.1,13.3,0c8.2-0.2,15.1-2.9,18.8-10.8
		C413.5,318.6,413.7,311.7,412.4,304.7z M401.3,320.7c-1.2,4.6-4.7,6.9-9.7,7.1c-9.8,0.4-9.8,0.4-9.8-9.2v-7.2c0-4.1,0.1-8.2,0-12.2
		c-0.1-2.6,0.6-3.9,3.4-3.5c1.5,0.2,3.1,0,4.7,0.1c8.3,0.4,12,3.3,12.8,11.5C403,311.7,402.4,316.3,401.3,320.7z"/>
	<path class="st0" d="M219.7,336.8c-7.4-0.3-13.8-1.7-17.6-8.1c-1.1-1.9-1.8-4.3-1.7-6.4c0-1.4,1.7-3.5,2.9-3.8
		c1.5-0.3,3.4,0.9,4.8,1.9c0.8,0.5,1,1.9,1.5,2.8c3,6,10.1,8,15.8,4.5c4.3-2.7,4.3-8.1-0.2-10.4c-2.5-1.3-5.4-1.8-8.2-2.7
		c-2.4-0.7-4.9-1.3-7.2-2.3c-6.5-2.7-9.2-6.8-8.8-13.3c0.3-5.3,4-9.5,10.2-11.2c5.9-1.7,11.8-1.7,17.6,0.8c3.4,1.5,6.1,3.9,7.2,7.6
		c0.9,2.7,0.5,5.2-2.2,6.5c-2.7,1.3-4.9,0.1-6.2-2.6c-2.7-5.8-5.4-6.7-12-5.8c-2.6,0.4-4.8,1.7-5.2,4.7c-0.3,3,1.8,4.4,4.1,5.2
		c4.2,1.4,8.5,2.3,12.8,3.7c8.5,2.8,11.9,7.4,11.2,14.9c-0.6,6.8-6.2,12.2-13.9,13.4C222.8,336.5,221,336.7,219.7,336.8z"/>
</g>
</svg>
