<svg xmlns="http://www.w3.org/2000/svg" viewBox="0 0 132.18 97.4"><defs><style>.cls-1{fill:#4b1d3f;}.cls-2{fill:#fddab4;}.cls-3{fill:#4d1f40;}.cls-4{fill:#fbd8b2;}.cls-5{fill:#fcd9b3;}</style></defs><g id="Capa_2" data-name="Capa 2"><g id="Capa_1-2" data-name="Capa 1"><path class="cls-1" d="M18.82,39.64a14.3,14.3,0,0,1,4.38.59c1.21.5,1.64.14,2.07-1C29.8,27,38.15,18.5,50.13,13.51c1.08-.45,1.44-.79.92-2a7.14,7.14,0,0,1,.44-6c.64-1.36,1.39-1.64,2.68-.69a24.24,24.24,0,0,0,7.28,3.9c1.2.36,1.81.39,1.89-1.2C63.47,5,64.68,2.84,66,.74c.66-1.09,1.2-.9,1.81.09A31,31,0,0,0,82.34,13.54,44.43,44.43,0,0,1,105.69,35.8c.72,1.49.86,3.64,2,4.45s3.11-.46,4.78-.58a18.41,18.41,0,1,1,.19,36.75,16.57,16.57,0,0,1-6.86-1.76c-.85-.47-1.26-.42-1.79.49A42.21,42.21,0,0,1,78,95.62c-14.27,4-27.37,1.25-39.08-7.88A38.91,38.91,0,0,1,28.48,75.48c-.64-1.19-1.18-1.26-2.36-.75A18.4,18.4,0,0,1,0,56.89C.48,47.25,9.32,39.12,18.82,39.64Z"/><path class="cls-2" d="M65.59,87a44.85,44.85,0,0,1-21.8-5.26,21.37,21.37,0,0,1-7.66-6.63c-2.85-4.2-3.28-8.58-.75-13.06a1.47,1.47,0,0,0-.31-2.1c-4.78-5.13-5.88-11.13-3.17-17.48s7.76-9.6,14.65-9.84c3.14-.11,6-1.42,9-1.94a59.27,59.27,0,0,1,26.91,1.39,14.09,14.09,0,0,0,3.21.54A16.32,16.32,0,0,1,99.46,56.7a21.78,21.78,0,0,1-2.55,3.37,1.2,1.2,0,0,0-.28,1.51c3.31,7.26,2,12.6-4.29,17.61-5.45,4.32-11.84,6.3-18.59,7.35A57.27,57.27,0,0,1,65.59,87Z"/><path class="cls-2" d="M22.81,52.71a64.07,64.07,0,0,0,1.44,12.83,1.24,1.24,0,0,1-.85,1.63,10,10,0,1,1-1.62-18.85c.71.19,1.11.47,1,1.31C22.74,50.72,22.81,51.82,22.81,52.71Z"/><path class="cls-2" d="M122.68,58a10,10,0,0,1-13.62,9.34c-1-.38-1.42-.79-1.16-2a64.66,64.66,0,0,0,1.39-15.13c0-1.28.37-1.79,1.66-2A10,10,0,0,1,122.68,58Z"/><path class="cls-1" d="M66,32.07a55.28,55.28,0,0,1,16.14,2.42,19.84,19.84,0,0,0,4.38.56A14.12,14.12,0,0,1,99.06,48.49c.4,7.36-6,13.62-12.45,14.29a13.89,13.89,0,0,1-15-10.56c-.41-1.85-1.14-2.21-2.8-2.11a54.15,54.15,0,0,1-6.37,0c-1.28-.07-1.69.34-2,1.6a13.86,13.86,0,0,1-19.26,9.93C35.68,59.22,32,52.77,33,47.06c1.1-6.6,5.95-11.51,12.3-11.91,3.65-.23,7-1.48,10.56-2.08A76.72,76.72,0,0,1,66,32.07Z"/><path class="cls-1" d="M66.26,81.09c-5.83-.17-11.16-1.63-15.35-6a13.88,13.88,0,0,1-3.33-6A1.53,1.53,0,0,1,48.68,67a1.48,1.48,0,0,1,1.88,1.21c1.83,7.26,10.49,10.35,17.37,9.71a19.42,19.42,0,0,0,6.85-1.8,12.36,12.36,0,0,0,6.81-7.45c.32-1,.81-2,2.15-1.61s1.18,1.55.83,2.58c-2,5.92-6.46,9.06-12.21,10.67A21.57,21.57,0,0,1,66.26,81.09Z"/><path class="cls-3" d="M64.93,57.92c1.24.38,3.07-.2,3.16,1.93,0,1.31-1.73,2.7-3.25,2.71s-3.51-1.47-3.36-2.8C61.73,57.59,63.61,58.28,64.93,57.92Z"/><path class="cls-4" d="M54.1,48.8a1.64,1.64,0,0,1-1.66,1.58c-1.51.16-3.44-.68-4.44.38s-.19,2.83-.29,4.3c-.06,1-.51,1.66-1.5,1.67s-1.46-.65-1.56-1.62c-.16-1.51.68-3.44-.38-4.44s-2.83-.19-4.3-.29c-.95-.06-1.66-.5-1.68-1.5s.67-1.45,1.62-1.55c1.52-.17,3.45.67,4.45-.38s.19-2.83.29-4.3c.06-1,.51-1.66,1.5-1.68s1.46.65,1.56,1.62C47.87,44.1,47,46,48.09,47s2.83.2,4.29.29A1.66,1.66,0,0,1,54.1,48.8Z"/><path class="cls-5" d="M85.87,57.16a2.3,2.3,0,0,1-2.43-2.38,2.13,2.13,0,0,1,2.28-2.29,2.16,2.16,0,0,1,2.44,2.14A2.31,2.31,0,0,1,85.87,57.16Z"/><path class="cls-5" d="M88.19,43.64A2.24,2.24,0,0,1,86,46a2.34,2.34,0,1,1-.15-4.67A2.32,2.32,0,0,1,88.19,43.64Z"/><path class="cls-5" d="M91.44,51.6a2.3,2.3,0,0,1-2.33-2.3,2.26,2.26,0,0,1,2.41-2.4,2.33,2.33,0,0,1,2.38,2.28A2.45,2.45,0,0,1,91.44,51.6Z"/><path class="cls-5" d="M80.11,51.59a2.43,2.43,0,0,1-2.41-2.46,2.4,2.4,0,1,1,2.41,2.46Z"/></g></g></svg>