<svg xmlns="http://www.w3.org/2000/svg" viewBox="0 0 254.31 168.39"><defs><style>.cls-1{fill:#4b1d3f;}.cls-2{fill:#532540;}.cls-3{fill:#512340;}.cls-4{fill:#522440;}.cls-5{fill:#542640;}.cls-6{fill:#572941;}.cls-7{fill:#572940;}.cls-8{fill:#582941;}.cls-9{fill:#582940;}.cls-10{fill:#5e2f42;}.cls-11{fill:#6b3e45;}.cls-12{fill:#6c3f45;}.cls-13{fill:#552640;}.cls-14{fill:#542540;}.cls-15{fill:#fddab4;}.cls-16{fill:#4d1f40;}.cls-17{fill:#fbd8b2;}.cls-18{fill:#fcd9b3;}</style></defs><g id="Capa_2" data-name="Capa 2"><g id="Capa_1-2" data-name="Capa 1"><path class="cls-1" d="M195.49,132.38c1.32-2.39,2.59-4.74,3.9-7.07a9.31,9.31,0,0,1,1.28-1.92,2.85,2.85,0,0,1,3-.78,2.21,2.21,0,0,1,1.51,2.42c0,6.7,0,13.39,0,20.08,0,1.54-.88,2.07-2.18,2.09s-2.22-.62-2.19-2.24c.07-3.67,0-7.34,0-11a3.21,3.21,0,0,0-.34-2.12l-3.39,6.1c-.41.73-.78,1.54-1.8,1.53s-1.36-.83-1.75-1.58c-1.07-2-2.15-4.08-3.36-6.4a5.24,5.24,0,0,0-.28,2.6c0,3.54-.07,7.08,0,10.62,0,1.6-.56,2.48-2.16,2.5s-2.21-.79-2.2-2.43c.08-6.44,0-12.88,0-19.31,0-1.2,0-2.4,1.42-2.83a2.86,2.86,0,0,1,3.51,1.32c1.26,2.09,2.37,4.27,3.57,6.4A5.41,5.41,0,0,0,195.49,132.38Z"/><path class="cls-1" d="M14.83,132l-3.37,6c-.38.68-.75,1.4-1.67,1.42S8.4,138.69,8,137.94a40,40,0,0,0-3.67-6.09c0,4.34,0,8.69,0,13,0,1.59-.71,2.29-2.15,2.31S0,146.61,0,145c.06-6.57,0-13.13,0-19.7,0-1.17.12-2.25,1.43-2.63a2.79,2.79,0,0,1,3.39,1.18c1.09,1.74,2,3.58,3,5.38.56,1,1.11,2,1.66,3,.88-.18,1-.91,1.25-1.43,1.31-2.29,2.52-4.64,3.88-6.9A2.83,2.83,0,0,1,18,122.6c1.41.36,1.57,1.54,1.57,2.75,0,6.57,0,13.14,0,19.71,0,1.64-.93,2.17-2.32,2.14A1.87,1.87,0,0,1,15.25,145c.06-4.3,0-8.6,0-12.9Z"/><path class="cls-1" d="M85.32,133.1v7.78c0,1.35,0,2.7,0,4.05a1.92,1.92,0,0,1-2.18,2.27c-1.6,0-2.21-.81-2.2-2.44.07-6.56,0-13.12,0-19.68,0-1.07,0-2.12,1.28-2.45a2.82,2.82,0,0,1,3.29,1,36.11,36.11,0,0,1,2.09,3.69c1.65,3.11,3.26,6.24,4.91,9.4.76-.44.46-1.08.47-1.59,0-3.34.08-6.69,0-10,0-1.69.53-2.59,2.27-2.56s2.14.91,2.13,2.5c-.07,6.49,0,13,0,19.49,0,1.12.1,2.26-1.35,2.6a2.78,2.78,0,0,1-3.41-1.46l-5.76-10.7c-.35-.65-.74-1.28-1.11-1.92Z"/><path class="cls-1" d="M230.12,136.73c0-3.78,0-7.57,0-11.35,0-1.6.14-2.85,2.13-2.89,1.71,0,2.19.6,2.19,3,0,6.37,0,12.74,0,19.11,0,1.13.06,2.25-1.4,2.55a2.85,2.85,0,0,1-3.38-1.57l-5.93-11.05c-.3-.55-.63-1.09-1-1.67-.64.42-.36,1-.36,1.43,0,3.61-.05,7.21,0,10.81,0,1.54-.83,2.11-2.13,2.13s-2.21-.43-2.2-2q0-10.32,0-20.65a1.67,1.67,0,0,1,1.24-1.9,2.9,2.9,0,0,1,3.18.8,11.83,11.83,0,0,1,1.41,2.29c1.94,3.69,3.86,7.39,5.79,11.08Z"/><path class="cls-1" d="M146.47,135c0-1.93-.12-3.87,0-5.79.28-3.82,2.12-5.84,5.88-6.57a9.67,9.67,0,0,1,7.22,1.33,5.55,5.55,0,0,1,2.63,4.88,1.77,1.77,0,0,1-1.78,2.08c-1.22.07-2.26-.07-2.58-1.64-.52-2.5-1.56-3.18-4.09-3-2,.16-3,1.36-3,3.72,0,3.35,0,6.7,0,10,0,1.52.47,2.86,2,3.38a3.84,3.84,0,0,0,4.15-.68c1.26-1.22,1.12-2.86.9-4.37-.15-.94-1.18-.48-1.8-.48-1.16,0-2.09-.23-2.14-1.61,0-1.12.41-1.89,1.66-1.9,1.61,0,3.22,0,4.83,0,1.35-.05,1.88.65,1.86,1.88,0,1.8,0,3.61-.18,5.4a6,6,0,0,1-4.39,5.33,10.21,10.21,0,0,1-6.64,0,6.06,6.06,0,0,1-4.47-5.7c-.14-2.11,0-4.24,0-6.36Z"/><path class="cls-1" d="M238.51,135.07c0-1.86-.09-3.73,0-5.6.22-4,2.14-6.14,6-6.83a9.71,9.71,0,0,1,7,1.34,5.61,5.61,0,0,1,2.67,4.86,1.78,1.78,0,0,1-1.73,2.11c-1.21.09-2.29,0-2.63-1.57-.58-2.57-1.69-3.31-4.23-3-1.91.22-2.89,1.46-2.92,3.86,0,3.16,0,6.31,0,9.47,0,1.55.21,3,1.83,3.72a3.91,3.91,0,0,0,4.19-.41c1.4-1.12,1.23-2.76,1.14-4.3-.08-1.29-1.18-.7-1.81-.72-1.14,0-2.11-.17-2.18-1.56-.06-1.11.35-1.92,1.6-1.94,1.68,0,3.35,0,5,0a1.49,1.49,0,0,1,1.71,1.63,33.82,33.82,0,0,1-.17,5.78,6.21,6.21,0,0,1-4.91,5.33,10.28,10.28,0,0,1-5.34.08c-3.21-.8-5-2.73-5.27-6-.15-2.05,0-4.12,0-6.18Z"/><path class="cls-1" d="M101.63,132.69c0-2.57.07-5.15,0-7.72-.06-1.6.47-2.48,2.13-2.47s2.25.75,2.22,2.41c-.07,5,0,10,0,15.06,0,2.61,1.27,3.79,3.8,3.78s3.72-1.18,3.75-3.85c.05-5,0-10,0-15.06,0-1.77.8-2.52,2.44-2.33,1.16.13,1.91.64,1.9,2,0,5.35.09,10.69-.12,16-.19,4.78-3.36,7.29-8.47,7.11-4.86-.17-7.54-2.81-7.63-7.58C101.59,137.59,101.63,135.14,101.63,132.69Z"/><path class="cls-1" d="M62.88,134.9c0-3.35,0-6.7,0-10,0-1.65.62-2.39,2.24-2.38,3.67,0,7.35,0,11,0,1.4,0,2,.6,2,2s-.64,2-2,2c-2.38-.06-4.77,0-7.14,0-1.28,0-1.91.19-1.78,1.64s-.47,3.47.26,4.53,2.86.33,4.36.4c1.21,0,1.83.57,1.86,1.72a1.54,1.54,0,0,1-1.76,1.78,5.61,5.61,0,0,0-.58,0c-1.33.13-3.55-.54-3.81.3-.59,1.88-.28,4.05-.24,6.1,0,.78.74.54,1.2.55,2.51,0,5,.05,7.54,0,1.47,0,2.16.59,2.12,2s-.79,1.87-2.12,1.85c-3.54-.05-7.09-.05-10.63,0-1.76,0-2.59-.61-2.54-2.49C63,141.47,62.88,138.18,62.88,134.9Z"/><path class="cls-1" d="M127.93,147.6a10.25,10.25,0,0,1-5.86-2,2.51,2.51,0,0,1-1.2-2.65c.39-1.73,1.74-2.28,3.08-1.12a6.42,6.42,0,0,0,5,1.93c1.5-.15,2.82-.6,3.22-2.25a3.06,3.06,0,0,0-1.7-3.55c-2-1.1-4-2-6-3.07a5.8,5.8,0,0,1-3.09-5,6.16,6.16,0,0,1,4.22-6.61,12,12,0,0,1,8.49,0c1.66.57,2.19,1.77,1.57,3.14s-1.76,1.22-2.89.63a7.26,7.26,0,0,0-4.32-.65c-1.25.15-2.42.62-2.73,2s.59,2.31,1.74,2.9a63.77,63.77,0,0,1,5.87,2.88,6.7,6.7,0,0,1,3.17,5.25C137,144.5,133.8,147.68,127.93,147.6Z"/><path class="cls-1" d="M209.52,134.74c0-3.35.06-6.7,0-10,0-1.66.78-2.22,2.21-2.19s2.15.53,2.14,2.09q-.08,10.25,0,20.48c0,1.55-.84,2.09-2.13,2.12s-2.25-.58-2.21-2.22C209.57,141.57,209.52,138.15,209.52,134.74Z"/><path class="cls-1" d="M59.06,143.82C57.93,142,57,140,55.85,138.1c-.6-1-.83-1.57.53-2.29,2.52-1.32,3.54-4.34,3-7.75-.52-3-2.07-4.57-5.12-5.24-2.74-.61-5.51-.25-8.27-.32-2.37,0-2.56.18-2.57,2.49,0,3.21,0,6.43,0,9.65,0,3.41.06,6.82,0,10.22,0,1.58.63,2.3,2.1,2.34s2.32-.74,2.25-2.38a48.63,48.63,0,0,1,0-5.4c0-.76-.68-1.95.7-2.21s2.4-.1,3.09,1.45c1.1,2.46,2.52,4.78,3.78,7.17.69,1.32,1.63,1.74,3,1S59.87,145.17,59.06,143.82ZM51.45,133.7c-3.77.05-3.77.05-3.77-3.64s0-3.75,3.69-3.71c2.67,0,3.79,1.14,3.77,3.73S54,133.66,51.45,133.7Z"/><path class="cls-1" d="M39.39,130.91c0-6.39-4-9.53-10.26-8.12-3.46.77-5.25,2.74-5.47,6.26-.13,2,0,4,0,6h0c0,2.06-.07,4.12,0,6.17a5.79,5.79,0,0,0,2.3,4.71,9.43,9.43,0,0,0,9.54.84c3.06-1.28,3.84-4,3.87-7S39.4,133.87,39.39,130.91ZM35,140.32c-.11,2.4-1.33,3.47-3.71,3.42-2.2,0-3.38-1.18-3.43-3.53-.07-3.48-.07-7,0-10.43.05-2.3,1.29-3.41,3.52-3.43s3.43,1.06,3.62,3.35c0,.12,0,.25,0,.38v5h0C35,136.84,35.11,138.58,35,140.32Z"/><path class="cls-1" d="M182.75,144.08q-3.13-9.83-6-19.73a3,3,0,0,0-3-2.26c-1.25.14-2.44.4-2.91,1.94q-3.1,10.25-6.28,20.45c-.53,1.67.44,2.24,1.71,2.62s2-.08,2.42-1.42c1.17-3.88,1.22-3.87,5.33-3.87,3.63,0,3.67,0,4.66,3.49.39,1.37.93,2.26,2.54,1.79S183.3,145.81,182.75,144.08Zm-11.36-5.75c-.55,0-.63-.31-.5-.75.85-3.05,1.7-6.09,2.56-9.14l.43,0,2.75,9.65C174.85,138.56,173.11,138.24,171.39,138.33Z"/><path class="cls-2" d="M128.8,161.36q-1.31,2.63-2.63,5.24c-.26.5-.4,1.23-1.08,1.21s-.81-.75-1.07-1.25a30.23,30.23,0,0,0-3-5c0,1.76,0,3.53,0,5.29,0,.56.11,1.35-.7,1.33s-.67-.79-.68-1.35c0-2.64,0-5.28,0-7.92,0-.52-.08-1.17.51-1.34.75-.22.92.54,1.17,1,1.23,2.4,2.44,4.81,3.85,7.61,1.34-2.7,2.48-5,3.67-7.37.27-.53.38-1.44,1.2-1.27s.59,1,.59,1.65c0,2.57,0,5.15,0,7.73,0,.58,0,1.32-.8,1.27-.63,0-.59-.74-.59-1.25v-5.5Z"/><path class="cls-3" d="M73.32,165.83c1.16-2.36,2.3-4.71,3.47-7,.27-.53.41-1.44,1.24-1.22.65.16.51.94.51,1.51q0,3.87,0,7.72c0,.57.09,1.39-.62,1.41-.92,0-.73-.87-.74-1.48a25.6,25.6,0,0,0-.43-5.35c-.86,1.71-1.72,3.43-2.6,5.13-.26.49-.36,1.22-1.06,1.25s-.84-.69-1.1-1.18a29.58,29.58,0,0,0-3-5.06c0,1.8,0,3.61,0,5.42,0,.55.09,1.32-.75,1.26-.67-.06-.58-.76-.58-1.26q0-4,0-8.1c0-.5-.11-1.15.55-1.29s.82.52,1,1c1,1.88,1.9,3.79,2.88,5.67C72.37,164.72,72.48,165.41,73.32,165.83Z"/><path class="cls-4" d="M41.55,160.62c0,2.1,0,4.2,0,6.3,0,.55.09,1.32-.73,1.3s-.6-.73-.6-1.23c0-2.77,0-5.53,0-8.29,0-.45-.06-1,.48-1.15s.79.3,1.07.66a68.92,68.92,0,0,0,5.91,7c0-2.08,0-4.16,0-6.23,0-.56-.14-1.4.55-1.45.94-.07.76.85.76,1.45q0,3.85,0,7.72c0,.54.17,1.27-.56,1.47s-.84-.46-1.15-.85q-2.62-3.44-5.26-6.86Z"/><path class="cls-5" d="M22.18,164.94c0,2.38-1.2,3.49-3.71,3.44a5.42,5.42,0,0,1-4.91-3.46,5.45,5.45,0,0,1,7-7.12c.65.28,1.83.54,1.42,1.45s-1.18-.07-1.75-.26a4,4,0,0,0-4.6,1,3.94,3.94,0,0,0-.72,4.8,3.87,3.87,0,0,0,3.92,2.28c1.15-.08,2.06-.4,2.07-1.95,0-1.35-.64-1.45-1.66-1.4-.44,0-1,0-.92-.67,0-.47.48-.51.87-.57C21.65,162,22.18,162.48,22.18,164.94Z"/><path class="cls-6" d="M193.63,161.7c0,.77,0,1.54,0,2.31a4.17,4.17,0,0,1-4.55,4.38c-2.79,0-4.48-1.68-4.52-4.42,0-1.74,0-3.48,0-5.21,0-.51-.05-1.19.62-1.23.83-.05.77.7.77,1.27,0,1.73,0,3.47,0,5.21a2.83,2.83,0,0,0,3.14,3.07,2.79,2.79,0,0,0,3.11-3.09c0-1.8,0-3.6,0-5.4,0-.46.06-1,.59-1.06.68-.05.79.54.8,1.08C193.63,159.64,193.62,160.67,193.63,161.7Z"/><path class="cls-7" d="M231.26,161.64c0-.91,0-1.81,0-2.71,0-.56-.12-1.37.64-1.39.94,0,.74.88.75,1.47,0,1.61,0,3.22,0,4.83,0,2.15,1.11,3.25,3.16,3.24s3.07-1.08,3.1-3.3c0-1.67,0-3.35,0-5,0-.51,0-1.18.6-1.24s.78.57.78,1.1c0,2.06.1,4.13-.06,6.18-.18,2.26-2.22,3.72-4.7,3.58s-4.2-1.67-4.29-4C231.24,163.44,231.27,162.54,231.26,161.64Z"/><path class="cls-8" d="M103.35,168.39a4.77,4.77,0,0,1-3.39-1.62c-.28-.34-.59-.77-.14-1.19s.82,0,1.11.32a3.35,3.35,0,0,0,3.31,1.11c.92-.16,1.78-.55,1.84-1.67s-.7-1.61-1.62-1.88-1.78-.3-2.61-.62a2.63,2.63,0,0,1-1.95-2.78,2.71,2.71,0,0,1,2.2-2.39,4.18,4.18,0,0,1,4.75,1.16c.3.34.62.77.23,1.19s-.82.06-1.11-.28a3.11,3.11,0,0,0-3.52-.86,1.39,1.39,0,0,0-1.17,1.35,1.44,1.44,0,0,0,1,1.47,14.59,14.59,0,0,0,1.88.4c2.24.41,3.41,1.6,3.28,3.34S105.71,168.39,103.35,168.39Z"/><path class="cls-9" d="M153,157.38a4,4,0,0,1,3,1.57c.24.32.48.7.19,1-.42.5-.83.13-1.12-.21a3.05,3.05,0,0,0-3.13-1c-.79.15-1.53.45-1.59,1.42a1.57,1.57,0,0,0,1.33,1.65c.62.17,1.27.2,1.89.34,1.64.37,2.9,1.15,3,3,0,1.6-1.14,2.76-3.12,3.09a4.63,4.63,0,0,1-4.37-1.5c-.29-.31-.63-.73-.2-1.18s.83-.1,1.13.25a3.36,3.36,0,0,0,3.67,1,1.69,1.69,0,0,0,1.51-1.53,1.79,1.79,0,0,0-1.41-1.85c-.54-.18-1.13-.2-1.69-.33-2.15-.47-3.32-1.73-3.09-3.3S150.79,157.35,153,157.38Z"/><path class="cls-4" d="M199.4,162.76v-.2c.17-1.63-.78-4,.44-4.77,1.75-1.15,4.23-.3,6.4-.38a.62.62,0,0,1,.73.69c-.05.53-.51.5-.89.5a38.23,38.23,0,0,1-3.86,0c-1.45-.12-1.48.69-1.5,1.77s.13,1.88,1.54,1.73a13.94,13.94,0,0,1,2.5,0,.58.58,0,0,1,.61.61c0,.41-.3.54-.64.55a13.72,13.72,0,0,1-2.31,0c-1.65-.22-1.68.72-1.71,2s.2,2.07,1.76,1.91a32.08,32.08,0,0,1,3.67,0c.39,0,.83,0,.84.55s-.38.65-.79.65c-1.93,0-3.86,0-5.79,0-.85,0-1-.65-1-1.36C199.41,165.59,199.41,164.17,199.4,162.76Z"/><path class="cls-10" d="M222.41,157.37c1.09,0,2.18,0,3.27,0,.47,0,.95.12.89.74s-.51.47-.88.52c-2.67.43-2.67.43-2.67,3.25,0,1.74,0,3.47,0,5.2,0,.51,0,1.15-.7,1.15s-.71-.63-.71-1.15c0-2.18-.11-4.37,0-6.55.09-1.54-.44-2-1.93-1.91-.56.05-1.56.31-1.61-.53-.05-1,1-.69,1.63-.73.9-.05,1.8,0,2.7,0Z"/><path class="cls-11" d="M237.1,153.13c.51.11.82.42.66.82a3.08,3.08,0,0,1-1.81,1.81.54.54,0,0,1-.69-.65A3.65,3.65,0,0,1,237.1,153.13Z"/><path class="cls-12" d="M140.22,155.8c-.63,0-1-.28-.87-.7a3.33,3.33,0,0,1,2-1.94c.28-.11.61.28.57.61C141.74,154.86,140.74,155.19,140.22,155.8Z"/><path class="cls-13" d="M173.62,157.38a5.36,5.36,0,0,0-4.86,3,5.43,5.43,0,0,0,.55,5.84,5.33,5.33,0,0,0,5.49,2c1.2-.21,2.36-.86,3.57-.08.32-1.14.15-2.3.61-3.5C180.38,161,177.65,157.36,173.62,157.38Zm4.18,6.91c-.28.83-.62,1.49-1.56.51-.36-.39-.78-1.12-1.4-.56s0,1,.43,1.42c.91.91.26,1.19-.55,1.33a4.17,4.17,0,0,1-4.32-1.51,4.09,4.09,0,0,1-.41-4.55,3.88,3.88,0,0,1,3.56-2.26C176.85,158.8,178.74,161.54,177.8,164.29Z"/><path class="cls-14" d="M89.42,157.39a5.5,5.5,0,1,0-.1,11,5.5,5.5,0,0,0,.1-11Zm-.26,9.7a4.21,4.21,0,1,1,4.39-4.1A4.12,4.12,0,0,1,89.16,167.09Z"/><path class="cls-2" d="M35.27,166.56c-1.13-2.67-2.25-5.34-3.39-8-.19-.45-.29-1.09-1-1-.51,0-.65.57-.83,1-.78,1.84-1.55,3.68-2.33,5.51-.43,1-.86,2-1.27,3-.17.43-.29.93.27,1.16s.74-.3,1-.67.24-1.32.91-1.38a36.36,36.36,0,0,1,4.43-.05c.93,0,.83,1,1.2,1.57.22.31.41.71.87.58s.44-.44.45-.88C35.5,167.16,35.39,166.86,35.27,166.56Zm-2.64-2c-.73.65-2,.25-3,.2-.71,0-.55-.55-.37-1,.49-1.22,1-2.43,1.7-4.13a28.23,28.23,0,0,1,1.12,2.68C32.34,163.07,33.26,164,32.63,164.55Z"/><path class="cls-3" d="M62.92,167.24c-1.3-3.08-2.59-6.16-3.93-9.22-.33-.75-.93-.75-1.26,0-1.34,3.06-2.63,6.14-3.91,9.22a.68.68,0,0,0,.33,1,.63.63,0,0,0,.86-.54c.42-2,2-1.62,3.57-1.61,1.13,0,2.69-.42,3.1,1.61a.65.65,0,0,0,.86.54A.69.69,0,0,0,62.92,167.24Zm-4.35-2.37c-2.38-.07-2.39,0-1.44-2.29.34-.83.7-1.65,1.26-3,.63,1.53,1,2.56,1.47,3.51C60.68,164.66,60,164.91,58.57,164.87Z"/><path class="cls-3" d="M144.48,167.13c-1.29-3-2.63-6.16-4.09-9.31-.33-.71-.91-.28-1.13.24q-2,4.5-3.86,9c-.17.42-.22,1,.36,1.13s.64-.28.85-.6c.33-.52.29-1.44,1-1.5a32.75,32.75,0,0,1,4.43,0c.88.06.77,1.07,1.16,1.62.22.31.44.67.91.46S144.55,167.71,144.48,167.13Zm-4.58-2.29c-2.14,0-2.15,0-1.35-1.94.34-.83.69-1.66,1.06-2.48,0-.11.16-.18.46-.52.46,1.12.84,2,1.19,2.89C142.07,164.84,142.07,164.84,139.9,164.84Z"/><path class="cls-1" d="M79.2,39.64a14.26,14.26,0,0,1,4.38.59c1.22.5,1.65.14,2.08-1C90.19,27,98.54,18.5,110.51,13.51c1.09-.45,1.45-.79.92-2a7.18,7.18,0,0,1,.44-6c.65-1.36,1.4-1.64,2.69-.69a24.31,24.31,0,0,0,7.27,3.9c1.21.36,1.82.39,1.9-1.2.12-2.5,1.33-4.67,2.62-6.77.66-1.09,1.2-.9,1.8.09a31.07,31.07,0,0,0,14.58,12.71A44.45,44.45,0,0,1,166.07,35.8c.72,1.49.86,3.64,2,4.45s3.1-.46,4.77-.58a18.41,18.41,0,1,1,.2,36.75,16.61,16.61,0,0,1-6.87-1.76c-.84-.47-1.26-.42-1.78.49a42.2,42.2,0,0,1-26,20.47c-14.27,4-27.37,1.25-39.08-7.88A38.87,38.87,0,0,1,88.87,75.48c-.65-1.19-1.18-1.26-2.36-.75a18.4,18.4,0,0,1-26.1-17.84C60.86,47.25,69.71,39.12,79.2,39.64Z"/><path class="cls-15" d="M126,87a44.85,44.85,0,0,1-21.8-5.26,21.41,21.41,0,0,1-7.67-6.63c-2.84-4.2-3.27-8.58-.74-13.06a1.48,1.48,0,0,0-.31-2.1c-4.78-5.13-5.89-11.13-3.17-17.48s7.75-9.6,14.65-9.84c3.13-.11,6-1.42,9-1.94a59.28,59.28,0,0,1,26.91,1.39,13.91,13.91,0,0,0,3.21.54A16.32,16.32,0,0,1,159.85,56.7a21.85,21.85,0,0,1-2.56,3.37,1.21,1.21,0,0,0-.27,1.51c3.31,7.26,2,12.6-4.29,17.61-5.45,4.32-11.84,6.3-18.6,7.35A57.22,57.22,0,0,1,126,87Z"/><path class="cls-15" d="M83.19,52.71a64.8,64.8,0,0,0,1.44,12.83,1.23,1.23,0,0,1-.84,1.63,10,10,0,1,1-1.62-18.85c.7.19,1.11.47,1,1.31C83.13,50.72,83.19,51.82,83.19,52.71Z"/><path class="cls-15" d="M183.06,58a10,10,0,0,1-13.61,9.34c-1-.38-1.43-.79-1.16-2a64.65,64.65,0,0,0,1.38-15.13c0-1.28.38-1.79,1.66-2A10,10,0,0,1,183.06,58Z"/><path class="cls-1" d="M126.41,32.07a55.28,55.28,0,0,1,16.14,2.42,19.84,19.84,0,0,0,4.38.56,14.13,14.13,0,0,1,12.52,13.44c.4,7.36-6,13.62-12.45,14.29a13.91,13.91,0,0,1-15-10.56c-.4-1.85-1.13-2.21-2.79-2.11a54.15,54.15,0,0,1-6.37,0c-1.29-.07-1.7.34-2,1.6a13.86,13.86,0,0,1-19.26,9.93c-5.54-2.43-9.17-8.88-8.22-14.59,1.1-6.6,5.94-11.51,12.3-11.91,3.65-.23,7-1.48,10.55-2.08A77,77,0,0,1,126.41,32.07Z"/><path class="cls-1" d="M126.64,81.09c-5.83-.17-11.15-1.63-15.34-6a13.67,13.67,0,0,1-3.33-6,1.53,1.53,0,0,1,1.1-2.12A1.48,1.48,0,0,1,111,68.18c1.82,7.26,10.49,10.35,17.36,9.71a19.47,19.47,0,0,0,6.86-1.8,12.34,12.34,0,0,0,6.8-7.45c.33-1,.82-2,2.15-1.61s1.18,1.55.83,2.58c-2,5.92-6.46,9.06-12.21,10.67A21.57,21.57,0,0,1,126.64,81.09Z"/><path class="cls-16" d="M125.32,57.92c1.24.38,3.07-.2,3.15,1.93.06,1.31-1.73,2.7-3.24,2.71s-3.51-1.47-3.36-2.8C122.11,57.59,124,58.28,125.32,57.92Z"/><path class="cls-17" d="M114.48,48.8a1.62,1.62,0,0,1-1.65,1.58c-1.51.16-3.45-.68-4.44.38s-.2,2.83-.29,4.3c-.07,1-.52,1.66-1.51,1.67s-1.45-.65-1.55-1.62c-.17-1.51.68-3.44-.39-4.44s-2.83-.19-4.29-.29c-1-.06-1.66-.5-1.68-1.5s.66-1.45,1.62-1.55c1.51-.17,3.44.67,4.44-.38s.2-2.83.3-4.3c.06-1,.51-1.66,1.5-1.68s1.46.65,1.56,1.62c.16,1.51-.68,3.44.37,4.44s2.83.2,4.3.29A1.64,1.64,0,0,1,114.48,48.8Z"/><path class="cls-18" d="M146.26,57.16a2.32,2.32,0,0,1-2.44-2.38,2.37,2.37,0,0,1,4.72-.15A2.31,2.31,0,0,1,146.26,57.16Z"/><path class="cls-18" d="M148.58,43.64A2.26,2.26,0,0,1,146.35,46a2.34,2.34,0,1,1-.15-4.67A2.33,2.33,0,0,1,148.58,43.64Z"/><path class="cls-18" d="M151.83,51.6a2.29,2.29,0,0,1-2.33-2.3,2.26,2.26,0,0,1,2.4-2.4,2.32,2.32,0,0,1,2.38,2.28A2.45,2.45,0,0,1,151.83,51.6Z"/><path class="cls-18" d="M140.49,51.59a2.43,2.43,0,0,1-2.41-2.46,2.32,2.32,0,0,1,2.43-2.23,2.3,2.3,0,0,1,2.37,2.44A2.33,2.33,0,0,1,140.49,51.59Z"/></g></g></svg>